<?xml version="1.0" encoding="utf-8"?>
<!-- Generator: Adobe Illustrator 22.1.0, SVG Export Plug-In . SVG Version: 6.00 Build 0)  -->
<svg version="1.1" xmlns="http://www.w3.org/2000/svg" xmlns:xlink="http://www.w3.org/1999/xlink" x="0px" y="0px"
	 viewBox="0 0 457 620" style="enable-background:new 0 0 457 620;" xml:space="preserve">
<style type="text/css">
	.st0{fill:#E61D18;}
	.st1{fill:#B51E27;}
	.st2{fill:#181821;}
	.st3{display:none;}
	.st4{display:inline;fill:#E2E5E7;}
	.st5{display:inline;fill:#D1D5D5;}
	.st6{display:inline;fill:#C6CBCB;}
	.st7{display:inline;fill:#2D404E;}
	.st8{display:inline;fill:#DF584C;}
	.st9{display:inline;opacity:0.16;fill:#E2E5E7;enable-background:new    ;}
	.st10{display:inline;fill:none;}
	.st11{display:inline;}
	.st12{font-family:'Helvetica-Bold';}
	.st13{font-size:24px;}
	.st14{fill:#808080;}
	.st15{display:inline;fill:#333333;}
	.st16{fill:#FFFFFF;}
</style>
<g id="Layer_2">
	<polygon class="st0" points="309.9,474.9 259.6,424.6 175.1,509.2 175.1,548 225.8,497.4 275.6,547.2 275.6,509.2 245.2,478.7 
		259.6,464.2 309.9,514.5 	"/>
	<polygon class="st1" points="309.9,474.9 259.6,424.6 259.6,464.2 309.9,514.5 	"/>
	<polygon class="st1" points="224.6,459.7 225.8,497.4 245.2,478.7 	"/>
	<polygon class="st0" points="165.6,498.9 215.9,448.6 131.3,364.1 92.5,364.1 143.1,414.7 93.2,464.6 131.3,464.6 161.8,434.2 
		176.3,448.6 126,498.9 	"/>
	<polygon class="st1" points="165.6,498.9 215.9,448.6 176.3,448.6 126,498.9 	"/>
	<polygon class="st1" points="180.8,413.6 143.1,414.7 161.8,434.2 	"/>
	<polygon class="st0" points="141.6,356.1 191.9,406.4 276.4,321.8 276.4,283 225.8,333.6 175.9,283.8 175.9,321.8 206.3,352.3 
		191.9,366.8 141.6,316.5 	"/>
	<polygon class="st1" points="141.6,356.1 191.9,406.4 191.9,366.8 141.6,316.5 	"/>
	<polygon class="st1" points="226.9,371.3 225.8,333.6 206.3,352.3 	"/>
	<polygon class="st0" points="285.9,330.6 235.6,380.9 320.2,465.4 359,465.4 308.4,414.7 358.3,364.9 320.2,364.9 289.7,395.3 
		275.2,380.9 325.5,330.6 	"/>
	<polygon class="st1" points="285.9,330.6 235.6,380.9 275.2,380.9 325.5,330.6 	"/>
	<polygon class="st1" points="270.7,415.9 308.4,414.7 289.7,395.3 	"/>
	<g>
		<path class="st2" d="M77.8,69.7V52.4h3.6V59h6.7v-6.6h3.6v17.3h-3.6V62h-6.7v7.7H77.8z"/>
		<path class="st2" d="M98.3,55.4h-3.4v-3.1h3.4V55.4z M94.9,56.9h3.4v12.8h-3.4V56.9z"/>
		<path class="st2" d="M101.4,72.5c0.7-0.2,1.2-0.5,1.5-0.9s0.5-1.1,0.5-1.8h-2v-3.5h3.6v3c0,0.5-0.1,1.1-0.2,1.7s-0.4,1.1-0.8,1.5
			c-0.4,0.5-0.9,0.8-1.5,1s-0.9,0.3-1.2,0.3V72.5z"/>
		<path class="st2" d="M130.8,57c0.5,0.2,1,0.6,1.5,1.1c0.4,0.4,0.6,1,0.7,1.6c0.1,0.4,0.1,1.1,0.1,1.9l0,8.1h-3.4v-8.1
			c0-0.5-0.1-0.9-0.2-1.2c-0.3-0.6-0.8-0.9-1.6-0.9c-0.9,0-1.6,0.4-1.9,1.1c-0.2,0.4-0.3,0.9-0.3,1.5v7.6h-3.4v-7.6
			c0-0.8-0.1-1.3-0.2-1.7c-0.3-0.6-0.8-0.9-1.7-0.9c-1,0-1.6,0.3-1.9,0.9c-0.2,0.4-0.3,0.9-0.3,1.6v7.7h-3.4V56.9h3.2v1.9
			c0.4-0.7,0.8-1.1,1.2-1.4c0.6-0.5,1.5-0.8,2.5-0.8c1,0,1.8,0.2,2.4,0.6c0.5,0.4,0.9,0.9,1.1,1.5c0.4-0.8,1-1.3,1.6-1.7
			c0.7-0.4,1.5-0.5,2.3-0.5C129.7,56.6,130.3,56.7,130.8,57z"/>
		<path class="st2" d="M136.7,72.1l0.4,0c0.3,0,0.6,0,0.9,0s0.5-0.1,0.8-0.3c0.2-0.1,0.4-0.4,0.5-0.8s0.2-0.7,0.2-0.8l-4.7-13.3h3.7
			l2.8,9.4l2.6-9.4h3.6l-4.4,12.6c-0.8,2.4-1.5,3.9-2,4.5s-1.5,0.9-3,0.9c-0.3,0-0.5,0-0.7,0c-0.2,0-0.5,0-0.8,0V72.1z"/>
		<path class="st2" d="M166.6,57.6c0.8,0.7,1.3,1.8,1.3,3.4v8.6h-3.4v-7.8c0-0.7-0.1-1.2-0.3-1.5c-0.3-0.7-0.9-1-1.9-1
			c-1.1,0-1.9,0.5-2.3,1.4c-0.2,0.5-0.3,1.2-0.3,1.9v6.9h-3.3V56.9h3.2v1.9c0.4-0.7,0.8-1.1,1.2-1.4c0.7-0.5,1.6-0.8,2.6-0.8
			C164.6,56.6,165.7,56.9,166.6,57.6z"/>
		<path class="st2" d="M176,61.9c0.6-0.1,1.1-0.2,1.3-0.3c0.5-0.2,0.7-0.5,0.7-0.9c0-0.5-0.2-0.9-0.6-1.1c-0.4-0.2-0.9-0.3-1.6-0.3
			c-0.8,0-1.4,0.2-1.7,0.6c-0.2,0.3-0.4,0.7-0.5,1.2h-3.2c0.1-1.1,0.4-2,0.9-2.8c0.9-1.1,2.4-1.7,4.6-1.7c1.4,0,2.7,0.3,3.7,0.8
			c1.1,0.6,1.6,1.6,1.6,3.1v5.9c0,0.4,0,0.9,0,1.5c0,0.4,0.1,0.7,0.2,0.9s0.3,0.3,0.5,0.4v0.5h-3.6c-0.1-0.3-0.2-0.5-0.2-0.7
			s-0.1-0.5-0.1-0.8c-0.5,0.5-1,0.9-1.6,1.3c-0.7,0.4-1.5,0.6-2.5,0.6c-1.2,0-2.1-0.3-2.9-1c-0.8-0.7-1.1-1.6-1.1-2.8
			c0-1.6,0.6-2.7,1.8-3.4c0.7-0.4,1.7-0.7,3-0.8L176,61.9z M178,63.5c-0.2,0.1-0.4,0.2-0.6,0.3c-0.2,0.1-0.5,0.2-0.9,0.2l-0.8,0.1
			c-0.7,0.1-1.2,0.3-1.5,0.5c-0.5,0.3-0.8,0.8-0.8,1.4c0,0.6,0.2,1,0.5,1.2s0.7,0.4,1.2,0.4c0.7,0,1.4-0.2,2-0.6s0.9-1.2,1-2.3V63.5
			z"/>
		<path class="st2" d="M200.2,57c0.5,0.2,1,0.6,1.5,1.1c0.4,0.4,0.6,1,0.7,1.6c0.1,0.4,0.1,1.1,0.1,1.9l0,8.1h-3.4v-8.1
			c0-0.5-0.1-0.9-0.2-1.2c-0.3-0.6-0.8-0.9-1.6-0.9c-0.9,0-1.6,0.4-1.9,1.1c-0.2,0.4-0.3,0.9-0.3,1.5v7.6h-3.4v-7.6
			c0-0.8-0.1-1.3-0.2-1.7c-0.3-0.6-0.8-0.9-1.7-0.9c-1,0-1.6,0.3-1.9,0.9c-0.2,0.4-0.3,0.9-0.3,1.6v7.7h-3.4V56.9h3.2v1.9
			c0.4-0.7,0.8-1.1,1.2-1.4c0.6-0.5,1.5-0.8,2.5-0.8c1,0,1.8,0.2,2.4,0.6c0.5,0.4,0.9,0.9,1.1,1.5c0.4-0.8,1-1.3,1.6-1.7
			c0.7-0.4,1.5-0.5,2.3-0.5C199.1,56.6,199.6,56.7,200.2,57z"/>
		<path class="st2" d="M213.9,57.2c0.9,0.4,1.6,1,2.2,1.9c0.5,0.8,0.9,1.6,1,2.6c0.1,0.6,0.1,1.4,0.1,2.5H208
			c0.1,1.3,0.5,2.2,1.3,2.7c0.5,0.3,1.1,0.5,1.8,0.5c0.8,0,1.4-0.2,1.9-0.6c0.3-0.2,0.5-0.5,0.7-0.9h3.4c-0.1,0.8-0.5,1.5-1.2,2.3
			c-1.1,1.2-2.7,1.9-4.8,1.9c-1.7,0-3.2-0.5-4.5-1.6c-1.3-1-1.9-2.8-1.9-5.1c0-2.2,0.6-3.9,1.8-5.1c1.2-1.2,2.7-1.8,4.6-1.8
			C212,56.6,213,56.8,213.9,57.2z M208.9,60c-0.5,0.5-0.8,1.1-0.9,2h5.8c-0.1-0.9-0.4-1.6-0.9-2c-0.5-0.5-1.2-0.7-2-0.7
			C210.1,59.3,209.4,59.6,208.9,60z"/>
		<path class="st2" d="M229,55.4h-3.4v-3.1h3.4V55.4z M225.7,56.9h3.4v12.8h-3.4V56.9z"/>
		<path class="st2" d="M234.9,65.6c0.1,0.6,0.2,1,0.5,1.3c0.4,0.4,1.2,0.7,2.3,0.7c0.7,0,1.2-0.1,1.6-0.3s0.6-0.5,0.6-0.9
			c0-0.4-0.2-0.7-0.5-0.9c-0.3-0.2-1.5-0.5-3.5-1c-1.5-0.4-2.5-0.8-3.1-1.3c-0.6-0.5-0.9-1.3-0.9-2.3c0-1.2,0.5-2.2,1.4-3
			s2.2-1.3,3.9-1.3c1.6,0,2.9,0.3,3.9,1s1.6,1.7,1.7,3.3h-3.3c0-0.4-0.2-0.8-0.4-1c-0.4-0.5-1-0.7-1.9-0.7c-0.7,0-1.2,0.1-1.6,0.3
			s-0.5,0.5-0.5,0.8c0,0.4,0.2,0.7,0.5,0.8c0.3,0.2,1.5,0.5,3.5,0.9c1.3,0.3,2.3,0.8,3,1.4c0.7,0.6,1,1.4,1,2.4
			c0,1.3-0.5,2.3-1.4,3.1s-2.4,1.2-4.4,1.2c-2,0-3.5-0.4-4.5-1.3s-1.4-1.9-1.4-3.2H234.9z"/>
		<path class="st2" d="M252.6,52.4h3.6v7.1l6.7-7.1h4.7l-7.1,7.1l7.5,10.2h-4.6l-5.3-7.5l-1.7,1.8v5.8h-3.6V52.4z"/>
		<path class="st2" d="M270.1,72.1l0.4,0c0.3,0,0.6,0,0.9,0s0.5-0.1,0.8-0.3c0.2-0.1,0.4-0.4,0.5-0.8s0.2-0.7,0.2-0.8l-4.7-13.3h3.7
			l2.8,9.4l2.6-9.4h3.6l-4.4,12.6c-0.8,2.4-1.5,3.9-2,4.5s-1.5,0.9-3,0.9c-0.3,0-0.5,0-0.7,0s-0.5,0-0.8,0V72.1z"/>
		<path class="st2" d="M286.4,69.7H283V52.4h3.3V69.7z"/>
		<path class="st2" d="M298,57.2c0.9,0.4,1.6,1,2.2,1.9c0.5,0.8,0.9,1.6,1,2.6c0.1,0.6,0.1,1.4,0.1,2.5H292c0.1,1.3,0.5,2.2,1.3,2.7
			c0.5,0.3,1.1,0.5,1.8,0.5c0.8,0,1.4-0.2,1.9-0.6c0.3-0.2,0.5-0.5,0.7-0.9h3.4c-0.1,0.8-0.5,1.5-1.2,2.3c-1.1,1.2-2.7,1.9-4.8,1.9
			c-1.7,0-3.2-0.5-4.5-1.6c-1.3-1-1.9-2.8-1.9-5.1c0-2.2,0.6-3.9,1.8-5.1s2.7-1.8,4.6-1.8C296.1,56.6,297.1,56.8,298,57.2z M293,60
			c-0.5,0.5-0.8,1.1-0.9,2h5.8c-0.1-0.9-0.4-1.6-0.9-2s-1.2-0.7-2-0.7C294.1,59.3,293.4,59.6,293,60z"/>
		<path class="st2" d="M80.4,93.1c0.1,0.8,0.3,1.4,0.7,1.8c0.6,0.7,1.6,1.1,3.1,1.1c0.9,0,1.6-0.1,2.1-0.3c1-0.4,1.5-1,1.5-2
			c0-0.6-0.3-1-0.8-1.3c-0.5-0.3-1.3-0.6-2.4-0.8l-1.9-0.4c-1.8-0.4-3.1-0.8-3.8-1.3c-1.2-0.8-1.7-2-1.7-3.7c0-1.5,0.6-2.8,1.7-3.9
			c1.1-1,2.8-1.5,5-1.5c1.8,0,3.4,0.5,4.7,1.4c1.3,1,2,2.4,2,4.2h-3.5c-0.1-1-0.5-1.8-1.4-2.2c-0.6-0.3-1.3-0.4-2.2-0.4
			c-1,0-1.7,0.2-2.3,0.6s-0.9,0.9-0.9,1.6c0,0.6,0.3,1.1,0.8,1.4c0.4,0.2,1.1,0.4,2.3,0.7l3,0.7c1.3,0.3,2.3,0.7,3,1.3
			c1,0.8,1.5,2,1.5,3.5c0,1.6-0.6,2.9-1.8,3.9c-1.2,1-2.9,1.6-5.2,1.6c-2.3,0-4.1-0.5-5.4-1.5c-1.3-1-2-2.4-2-4.2H80.4z"/>
		<path class="st2" d="M109.5,85.8c0.5,0.2,1,0.6,1.5,1.1c0.4,0.4,0.6,1,0.7,1.6c0.1,0.4,0.1,1.1,0.1,1.9l0,8.1h-3.4v-8.1
			c0-0.5-0.1-0.9-0.2-1.2c-0.3-0.6-0.8-0.9-1.6-0.9c-0.9,0-1.6,0.4-1.9,1.1c-0.2,0.4-0.3,0.9-0.3,1.5v7.6H101v-7.6
			c0-0.8-0.1-1.3-0.2-1.7c-0.3-0.6-0.8-0.9-1.7-0.9c-1,0-1.6,0.3-1.9,0.9c-0.2,0.4-0.3,0.9-0.3,1.6v7.7h-3.4V85.7h3.2v1.9
			c0.4-0.7,0.8-1.1,1.2-1.4c0.6-0.5,1.5-0.8,2.5-0.8c1,0,1.8,0.2,2.4,0.6c0.5,0.4,0.9,0.9,1.1,1.5c0.4-0.8,1-1.3,1.6-1.7
			c0.7-0.4,1.5-0.5,2.3-0.5C108.4,85.4,109,85.5,109.5,85.8z"/>
		<path class="st2" d="M123.2,86c0.9,0.4,1.6,1,2.2,1.9c0.5,0.8,0.9,1.6,1,2.6c0.1,0.6,0.1,1.4,0.1,2.5h-9.3
			c0.1,1.3,0.5,2.2,1.3,2.7c0.5,0.3,1.1,0.5,1.8,0.5c0.8,0,1.4-0.2,1.9-0.6c0.3-0.2,0.5-0.5,0.7-0.9h3.4c-0.1,0.8-0.5,1.5-1.2,2.3
			c-1.1,1.2-2.7,1.9-4.8,1.9c-1.7,0-3.2-0.5-4.5-1.6c-1.3-1-1.9-2.8-1.9-5.1c0-2.2,0.6-3.9,1.8-5.1c1.2-1.2,2.7-1.8,4.6-1.8
			C121.3,85.4,122.3,85.6,123.2,86z M118.2,88.8c-0.5,0.5-0.8,1.1-0.9,2h5.8c-0.1-0.9-0.4-1.6-0.9-2c-0.5-0.5-1.2-0.7-2-0.7
			C119.4,88.1,118.7,88.4,118.2,88.8z"/>
		<path class="st2" d="M131.7,98.5h-3.3V81.2h3.3V98.5z"/>
		<path class="st2" d="M133.6,88.2v-2.4h1.8v-3.6h3.3v3.6h2.1v2.4h-2.1V95c0,0.5,0.1,0.8,0.2,1s0.5,0.2,1.2,0.2c0.1,0,0.2,0,0.3,0
			s0.2,0,0.3,0v2.5l-1.6,0.1c-1.6,0.1-2.7-0.2-3.2-0.8c-0.4-0.4-0.6-1-0.6-1.8v-7.9H133.6z"/>
		<path class="st2" d="M142.2,88.4v-2.7h10.1v2.8l-6.3,7.3h6.5v2.7h-10.8v-2.6l6.3-7.5H142.2z"/>
		<path class="st2" d="M163.2,86c0.9,0.4,1.6,1,2.2,1.9c0.5,0.8,0.9,1.6,1,2.6c0.1,0.6,0.1,1.4,0.1,2.5h-9.3
			c0.1,1.3,0.5,2.2,1.3,2.7c0.5,0.3,1.1,0.5,1.8,0.5c0.8,0,1.4-0.2,1.9-0.6c0.3-0.2,0.5-0.5,0.7-0.9h3.4c-0.1,0.8-0.5,1.5-1.2,2.3
			c-1.1,1.2-2.7,1.9-4.8,1.9c-1.7,0-3.2-0.5-4.5-1.6c-1.3-1-1.9-2.8-1.9-5.1c0-2.2,0.6-3.9,1.8-5.1c1.2-1.2,2.7-1.8,4.6-1.8
			C161.3,85.4,162.3,85.6,163.2,86z M158.2,88.8c-0.5,0.5-0.8,1.1-0.9,2h5.8c-0.1-0.9-0.4-1.6-0.9-2c-0.5-0.5-1.2-0.7-2-0.7
			C159.4,88.1,158.7,88.4,158.2,88.8z"/>
		<path class="st2" d="M175.4,85.4c0,0,0.1,0,0.3,0v3.4c-0.2,0-0.4,0-0.6,0s-0.3,0-0.4,0c-1.3,0-2.2,0.4-2.7,1.3
			c-0.3,0.5-0.4,1.2-0.4,2.3v6.1h-3.4V85.7h3.2v2.2c0.5-0.9,1-1.4,1.3-1.7c0.6-0.5,1.4-0.8,2.4-0.8
			C175.3,85.4,175.3,85.4,175.4,85.4z"/>
		<path class="st2" d="M176.1,101.3c0.7-0.2,1.2-0.5,1.5-0.9s0.5-1.1,0.5-1.8h-2V95h3.6v3c0,0.5-0.1,1.1-0.2,1.7s-0.4,1.1-0.8,1.5
			c-0.4,0.5-0.9,0.8-1.5,1s-0.9,0.3-1.2,0.3V101.3z"/>
		<path class="st2" d="M194.7,90.7c0.6-0.1,1.1-0.2,1.3-0.3c0.5-0.2,0.7-0.5,0.7-0.9c0-0.5-0.2-0.9-0.6-1.1
			c-0.4-0.2-0.9-0.3-1.6-0.3c-0.8,0-1.4,0.2-1.7,0.6c-0.2,0.3-0.4,0.7-0.5,1.2h-3.2c0.1-1.1,0.4-2,0.9-2.8c0.9-1.1,2.4-1.7,4.6-1.7
			c1.4,0,2.7,0.3,3.7,0.8c1.1,0.6,1.6,1.6,1.6,3.1v5.9c0,0.4,0,0.9,0,1.5c0,0.4,0.1,0.7,0.2,0.9s0.3,0.3,0.5,0.4v0.5h-3.6
			c-0.1-0.3-0.2-0.5-0.2-0.7s-0.1-0.5-0.1-0.8c-0.5,0.5-1,0.9-1.6,1.3c-0.7,0.4-1.5,0.6-2.5,0.6c-1.2,0-2.1-0.3-2.9-1
			c-0.8-0.7-1.1-1.6-1.1-2.8c0-1.6,0.6-2.7,1.8-3.4c0.7-0.4,1.7-0.7,3-0.8L194.7,90.7z M196.7,92.3c-0.2,0.1-0.4,0.2-0.6,0.3
			c-0.2,0.1-0.5,0.2-0.9,0.2l-0.8,0.1c-0.7,0.1-1.2,0.3-1.5,0.5c-0.5,0.3-0.8,0.8-0.8,1.4c0,0.6,0.2,1,0.5,1.2s0.7,0.4,1.2,0.4
			c0.7,0,1.4-0.2,2-0.6s0.9-1.2,1-2.3V92.3z"/>
		<path class="st2" d="M213.3,86.4c0.8,0.7,1.3,1.8,1.3,3.4v8.6h-3.4v-7.8c0-0.7-0.1-1.2-0.3-1.5c-0.3-0.7-0.9-1-1.9-1
			c-1.1,0-1.9,0.5-2.3,1.4c-0.2,0.5-0.3,1.2-0.3,1.9v6.9H203V85.7h3.2v1.9c0.4-0.7,0.8-1.1,1.2-1.4c0.7-0.5,1.6-0.8,2.6-0.8
			C211.4,85.4,212.4,85.7,213.3,86.4z"/>
		<path class="st2" d="M224.4,85.9c0.6,0.3,1.1,0.8,1.5,1.4v-6.1h3.4v17.2H226v-1.8c-0.5,0.8-1,1.3-1.6,1.7s-1.4,0.5-2.3,0.5
			c-1.5,0-2.7-0.6-3.8-1.8s-1.5-2.8-1.5-4.6c0-2.2,0.5-3.9,1.5-5.1s2.3-1.9,4-1.9C223.1,85.4,223.8,85.6,224.4,85.9z M225.2,95
			c0.5-0.7,0.7-1.6,0.7-2.7c0-1.6-0.4-2.7-1.2-3.4c-0.5-0.4-1-0.6-1.7-0.6c-1,0-1.7,0.4-2.2,1.1s-0.7,1.7-0.7,2.7
			c0,1.2,0.2,2.1,0.7,2.8s1.2,1.1,2.1,1.1S224.7,95.7,225.2,95z"/>
		<path class="st2" d="M242.5,98.5h-3.6V81.2h3.6V98.5z"/>
		<path class="st2" d="M245.7,86.6c0.8-0.2,1.4-0.7,1.7-1.2c0.2-0.3,0.2-0.7,0.2-1h-1.9v-3.1h3.4v2.5c0,1.2-0.3,2.1-0.9,2.8
			c-0.6,0.7-1.4,1.1-2.5,1.3V86.6z"/>
		<path class="st2" d="M268.2,85.8c0.5,0.2,1,0.6,1.5,1.1c0.4,0.4,0.6,1,0.7,1.6c0.1,0.4,0.1,1.1,0.1,1.9l0,8.1h-3.4v-8.1
			c0-0.5-0.1-0.9-0.2-1.2c-0.3-0.6-0.8-0.9-1.6-0.9c-0.9,0-1.6,0.4-1.9,1.1c-0.2,0.4-0.3,0.9-0.3,1.5v7.6h-3.4v-7.6
			c0-0.8-0.1-1.3-0.2-1.7c-0.3-0.6-0.8-0.9-1.7-0.9c-1,0-1.6,0.3-1.9,0.9c-0.2,0.4-0.3,0.9-0.3,1.6v7.7h-3.4V85.7h3.2v1.9
			c0.4-0.7,0.8-1.1,1.2-1.4c0.6-0.5,1.5-0.8,2.5-0.8c1,0,1.8,0.2,2.4,0.6c0.5,0.4,0.9,0.9,1.1,1.5c0.4-0.8,1-1.3,1.6-1.7
			c0.7-0.4,1.5-0.5,2.3-0.5C267.1,85.4,267.7,85.5,268.2,85.8z"/>
		<path class="st2" d="M287.9,90.3c-0.1-0.5-0.2-0.9-0.5-1.3c-0.4-0.5-1-0.8-1.8-0.8c-1.1,0-1.9,0.6-2.3,1.7
			c-0.2,0.6-0.3,1.4-0.3,2.4c0,0.9,0.1,1.7,0.3,2.3c0.4,1.1,1.2,1.6,2.3,1.6c0.8,0,1.3-0.2,1.7-0.6c0.3-0.4,0.5-1,0.6-1.6h3.4
			c-0.1,1-0.4,2-1.1,2.9c-1,1.5-2.6,2.2-4.7,2.2s-3.6-0.6-4.5-1.8c-1-1.2-1.5-2.8-1.5-4.7c0-2.2,0.5-3.9,1.6-5.1
			c1.1-1.2,2.5-1.8,4.4-1.8c1.6,0,2.9,0.4,3.9,1.1s1.6,2,1.8,3.8H287.9z"/>
		<path class="st2" d="M297,85.7v7.7c0,0.7,0.1,1.3,0.3,1.6c0.3,0.6,0.9,1,1.8,1c1.1,0,1.9-0.5,2.3-1.4c0.2-0.5,0.3-1.2,0.3-2v-6.9
			h3.4v12.8h-3.2v-1.8c0,0-0.1,0.2-0.2,0.4c-0.1,0.2-0.3,0.4-0.4,0.5c-0.5,0.5-1,0.8-1.5,1c-0.5,0.2-1.1,0.3-1.7,0.3
			c-1.9,0-3.2-0.7-3.8-2c-0.4-0.8-0.5-1.9-0.5-3.3v-7.7H297z"/>
		<path class="st2" d="M315.4,85.4c0,0,0.1,0,0.3,0v3.4c-0.2,0-0.4,0-0.6,0s-0.3,0-0.4,0c-1.3,0-2.2,0.4-2.7,1.3
			c-0.3,0.5-0.4,1.2-0.4,2.3v6.1h-3.4V85.7h3.2v2.2c0.5-0.9,1-1.4,1.3-1.7c0.6-0.5,1.4-0.8,2.4-0.8
			C315.3,85.4,315.4,85.4,315.4,85.4z"/>
		<path class="st2" d="M324.7,85.4c0,0,0.1,0,0.3,0v3.4c-0.2,0-0.4,0-0.6,0s-0.3,0-0.4,0c-1.3,0-2.2,0.4-2.7,1.3
			c-0.3,0.5-0.4,1.2-0.4,2.3v6.1h-3.4V85.7h3.2v2.2c0.5-0.9,1-1.4,1.3-1.7c0.6-0.5,1.4-0.8,2.4-0.8
			C324.7,85.4,324.7,85.4,324.7,85.4z"/>
		<path class="st2" d="M335.3,86c0.9,0.4,1.6,1,2.2,1.9c0.5,0.8,0.9,1.6,1,2.6c0.1,0.6,0.1,1.4,0.1,2.5h-9.3
			c0.1,1.3,0.5,2.2,1.3,2.7c0.5,0.3,1.1,0.5,1.8,0.5c0.8,0,1.4-0.2,1.9-0.6c0.3-0.2,0.5-0.5,0.7-0.9h3.4c-0.1,0.8-0.5,1.5-1.2,2.3
			c-1.1,1.2-2.7,1.9-4.8,1.9c-1.7,0-3.2-0.5-4.5-1.6c-1.3-1-1.9-2.8-1.9-5.1c0-2.2,0.6-3.9,1.8-5.1s2.7-1.8,4.6-1.8
			C333.4,85.4,334.4,85.6,335.3,86z M330.3,88.8c-0.5,0.5-0.8,1.1-0.9,2h5.8c-0.1-0.9-0.4-1.6-0.9-2s-1.2-0.7-2-0.7
			C331.5,88.1,330.8,88.4,330.3,88.8z"/>
		<path class="st2" d="M350.6,86.4c0.8,0.7,1.3,1.8,1.3,3.4v8.6h-3.4v-7.8c0-0.7-0.1-1.2-0.3-1.5c-0.3-0.7-0.9-1-1.9-1
			c-1.1,0-1.9,0.5-2.3,1.4c-0.2,0.5-0.3,1.2-0.3,1.9v6.9h-3.3V85.7h3.2v1.9c0.4-0.7,0.8-1.1,1.2-1.4c0.7-0.5,1.6-0.8,2.6-0.8
			C348.7,85.4,349.8,85.7,350.6,86.4z"/>
		<path class="st2" d="M353.7,88.2v-2.4h1.8v-3.6h3.3v3.6h2.1v2.4h-2.1V95c0,0.5,0.1,0.8,0.2,1s0.5,0.2,1.2,0.2c0.1,0,0.2,0,0.3,0
			s0.2,0,0.3,0v2.5l-1.6,0.1c-1.6,0.1-2.7-0.2-3.2-0.8c-0.4-0.4-0.6-1-0.6-1.8v-7.9H353.7z"/>
		<path class="st2" d="M366.4,98.5h-3.3V81.2h3.3V98.5z"/>
		<path class="st2" d="M370.2,100.9l0.4,0c0.3,0,0.6,0,0.9,0s0.5-0.1,0.8-0.3c0.2-0.1,0.4-0.4,0.5-0.8s0.2-0.7,0.2-0.8l-4.7-13.3
			h3.7l2.8,9.4l2.6-9.4h3.6l-4.4,12.6c-0.8,2.4-1.5,3.9-2,4.5s-1.5,0.9-3,0.9c-0.3,0-0.5,0-0.7,0s-0.5,0-0.8,0V100.9z"/>
		<path class="st2" d="M80.1,123.2c0.1,0.6,0.2,1,0.5,1.3c0.4,0.4,1.2,0.7,2.3,0.7c0.7,0,1.2-0.1,1.6-0.3c0.4-0.2,0.6-0.5,0.6-0.9
			c0-0.4-0.2-0.7-0.5-0.9s-1.5-0.5-3.5-1c-1.5-0.4-2.5-0.8-3.1-1.3c-0.6-0.5-0.9-1.3-0.9-2.3c0-1.2,0.5-2.2,1.4-3s2.2-1.3,3.9-1.3
			c1.6,0,2.9,0.3,3.9,1s1.6,1.7,1.7,3.3h-3.3c0-0.4-0.2-0.8-0.4-1c-0.4-0.5-1-0.7-1.9-0.7c-0.7,0-1.2,0.1-1.6,0.3
			c-0.3,0.2-0.5,0.5-0.5,0.8c0,0.4,0.2,0.7,0.5,0.8c0.3,0.2,1.5,0.5,3.5,0.9c1.3,0.3,2.3,0.8,3,1.4c0.7,0.6,1,1.4,1,2.4
			c0,1.3-0.5,2.3-1.4,3.1s-2.4,1.2-4.4,1.2c-2,0-3.5-0.4-4.5-1.3s-1.4-1.9-1.4-3.2H80.1z"/>
		<path class="st2" d="M89.6,117v-2.4h1.8v-3.6h3.3v3.6h2.1v2.4h-2.1v6.8c0,0.5,0.1,0.8,0.2,1s0.5,0.2,1.2,0.2c0.1,0,0.2,0,0.3,0
			s0.2,0,0.3,0v2.5l-1.6,0.1c-1.6,0.1-2.7-0.2-3.2-0.8c-0.4-0.4-0.6-1-0.6-1.8V117H89.6z"/>
		<path class="st2" d="M102.2,114.5v7.7c0,0.7,0.1,1.3,0.3,1.6c0.3,0.6,0.9,1,1.8,1c1.1,0,1.9-0.5,2.3-1.4c0.2-0.5,0.3-1.2,0.3-2
			v-6.9h3.4v12.8h-3.2v-1.8c0,0-0.1,0.2-0.2,0.4c-0.1,0.2-0.3,0.4-0.4,0.5c-0.5,0.5-1,0.8-1.5,1c-0.5,0.2-1.1,0.3-1.7,0.3
			c-1.9,0-3.2-0.7-3.8-2c-0.4-0.8-0.5-1.9-0.5-3.3v-7.7H102.2z"/>
		<path class="st2" d="M120.3,114.7c0.6,0.3,1.1,0.8,1.5,1.4V110h3.4v17.2h-3.2v-1.8c-0.5,0.8-1,1.3-1.6,1.7s-1.4,0.5-2.3,0.5
			c-1.5,0-2.7-0.6-3.8-1.8s-1.5-2.8-1.5-4.6c0-2.2,0.5-3.9,1.5-5.1s2.3-1.9,4-1.9C119,114.2,119.7,114.4,120.3,114.7z M121.2,123.8
			c0.5-0.7,0.7-1.6,0.7-2.7c0-1.6-0.4-2.7-1.2-3.4c-0.5-0.4-1-0.6-1.7-0.6c-1,0-1.7,0.4-2.2,1.1s-0.7,1.7-0.7,2.7
			c0,1.2,0.2,2.1,0.7,2.8s1.2,1.1,2.1,1.1S120.7,124.5,121.2,123.8z"/>
		<path class="st2" d="M128.7,129.7l0.4,0c0.3,0,0.6,0,0.9,0s0.5-0.1,0.8-0.3c0.2-0.1,0.4-0.4,0.5-0.8s0.2-0.7,0.2-0.8l-4.7-13.3
			h3.7l2.8,9.4l2.6-9.4h3.6l-4.4,12.6c-0.8,2.4-1.5,3.9-2,4.5s-1.5,0.9-3,0.9c-0.3,0-0.5,0-0.7,0c-0.2,0-0.5,0-0.8,0V129.7z"/>
		<path class="st2" d="M145,113h-3.4v-3.1h3.4V113z M141.6,114.5h3.4v12.8h-3.4V114.5z"/>
		<path class="st2" d="M158.5,115.2c0.8,0.7,1.3,1.8,1.3,3.4v8.6h-3.4v-7.8c0-0.7-0.1-1.2-0.3-1.5c-0.3-0.7-0.9-1-1.9-1
			c-1.1,0-1.9,0.5-2.3,1.4c-0.2,0.5-0.3,1.2-0.3,1.9v6.9h-3.3v-12.8h3.2v1.9c0.4-0.7,0.8-1.1,1.2-1.4c0.7-0.5,1.6-0.8,2.6-0.8
			C156.6,114.2,157.7,114.5,158.5,115.2z"/>
		<path class="st2" d="M169.2,114.5c0.8,0.3,1.5,1,2,1.9v-1.8h3.3v12.1c0,1.6-0.3,2.9-0.8,3.7c-1,1.4-2.8,2.2-5.5,2.2
			c-1.6,0-3-0.3-4-1s-1.6-1.6-1.7-2.9h3.6c0.1,0.4,0.2,0.7,0.5,0.8c0.4,0.3,1,0.5,1.8,0.5c1.2,0,2-0.4,2.4-1.2
			c0.3-0.5,0.4-1.4,0.4-2.6v-0.8c-0.3,0.5-0.7,1-1,1.2c-0.7,0.5-1.5,0.8-2.6,0.8c-1.6,0-3-0.6-3.9-1.7s-1.5-2.7-1.5-4.7
			c0-1.9,0.5-3.5,1.4-4.8c0.9-1.3,2.3-1.9,4-1.9C168.2,114.2,168.7,114.3,169.2,114.5z M170.4,123.7c0.5-0.6,0.8-1.5,0.8-2.8
			c0-1.2-0.3-2.1-0.8-2.8c-0.5-0.6-1.2-0.9-2-0.9c-1.2,0-2,0.6-2.4,1.7c-0.2,0.6-0.4,1.3-0.4,2.2c0,0.7,0.1,1.4,0.4,2
			c0.5,1.1,1.3,1.6,2.4,1.6C169.2,124.5,169.8,124.2,170.4,123.7z"/>
		<path class="st2" d="M200.2,114.6c0.5,0.2,1,0.6,1.5,1.1c0.4,0.4,0.6,1,0.7,1.6c0.1,0.4,0.1,1.1,0.1,1.9l0,8.1H199v-8.1
			c0-0.5-0.1-0.9-0.2-1.2c-0.3-0.6-0.8-0.9-1.6-0.9c-0.9,0-1.6,0.4-1.9,1.1c-0.2,0.4-0.3,0.9-0.3,1.5v7.6h-3.4v-7.6
			c0-0.8-0.1-1.3-0.2-1.7c-0.3-0.6-0.8-0.9-1.7-0.9c-1,0-1.6,0.3-1.9,0.9c-0.2,0.4-0.3,0.9-0.3,1.6v7.7h-3.4v-12.8h3.2v1.9
			c0.4-0.7,0.8-1.1,1.2-1.4c0.6-0.5,1.5-0.8,2.5-0.8c1,0,1.8,0.2,2.4,0.6c0.5,0.4,0.9,0.9,1.1,1.5c0.4-0.8,1-1.3,1.6-1.7
			c0.7-0.4,1.5-0.5,2.3-0.5C199.1,114.2,199.6,114.3,200.2,114.6z"/>
		<path class="st2" d="M213.9,114.8c0.9,0.4,1.6,1,2.2,1.9c0.5,0.8,0.9,1.6,1,2.6c0.1,0.6,0.1,1.4,0.1,2.5h-9.3
			c0.1,1.3,0.5,2.2,1.3,2.7c0.5,0.3,1.1,0.5,1.8,0.5c0.8,0,1.4-0.2,1.9-0.6c0.3-0.2,0.5-0.5,0.7-0.9h3.4c-0.1,0.8-0.5,1.5-1.2,2.3
			c-1.1,1.2-2.7,1.9-4.8,1.9c-1.7,0-3.2-0.5-4.5-1.6c-1.3-1-1.9-2.8-1.9-5.1c0-2.2,0.6-3.9,1.8-5.1c1.2-1.2,2.7-1.8,4.6-1.8
			C212,114.2,213,114.4,213.9,114.8z M208.9,117.6c-0.5,0.5-0.8,1.1-0.9,2h5.8c-0.1-0.9-0.4-1.6-0.9-2c-0.5-0.5-1.2-0.7-2-0.7
			C210,116.9,209.4,117.2,208.9,117.6z"/>
		<path class="st2" d="M225.7,114.7c0.6,0.3,1.1,0.8,1.5,1.4V110h3.4v17.2h-3.2v-1.8c-0.5,0.8-1,1.3-1.6,1.7s-1.4,0.5-2.3,0.5
			c-1.5,0-2.7-0.6-3.8-1.8s-1.5-2.8-1.5-4.6c0-2.2,0.5-3.9,1.5-5.1s2.3-1.9,4-1.9C224.4,114.2,225.1,114.4,225.7,114.7z
			 M226.5,123.8c0.5-0.7,0.7-1.6,0.7-2.7c0-1.6-0.4-2.7-1.2-3.4c-0.5-0.4-1-0.6-1.7-0.6c-1,0-1.7,0.4-2.2,1.1s-0.7,1.7-0.7,2.7
			c0,1.2,0.2,2.1,0.7,2.8s1.2,1.1,2.1,1.1S226,124.5,226.5,123.8z"/>
		<path class="st2" d="M237,113h-3.4v-3.1h3.4V113z M233.6,114.5h3.4v12.8h-3.4V114.5z"/>
		<path class="st2" d="M245.3,119.5c0.6-0.1,1.1-0.2,1.3-0.3c0.5-0.2,0.7-0.5,0.7-0.9c0-0.5-0.2-0.9-0.6-1.1s-0.9-0.3-1.6-0.3
			c-0.8,0-1.4,0.2-1.7,0.6c-0.2,0.3-0.4,0.7-0.5,1.2h-3.2c0.1-1.1,0.4-2,0.9-2.8c0.9-1.1,2.4-1.7,4.6-1.7c1.4,0,2.7,0.3,3.7,0.8
			s1.6,1.6,1.6,3.1v5.9c0,0.4,0,0.9,0,1.5c0,0.4,0.1,0.7,0.2,0.9s0.3,0.3,0.5,0.4v0.5h-3.6c-0.1-0.3-0.2-0.5-0.2-0.7
			s-0.1-0.5-0.1-0.8c-0.5,0.5-1,0.9-1.6,1.3c-0.7,0.4-1.5,0.6-2.5,0.6c-1.2,0-2.1-0.3-2.9-1c-0.8-0.7-1.1-1.6-1.1-2.8
			c0-1.6,0.6-2.7,1.8-3.4c0.7-0.4,1.7-0.7,3-0.8L245.3,119.5z M247.3,121.1c-0.2,0.1-0.4,0.2-0.6,0.3s-0.5,0.2-0.9,0.2l-0.8,0.1
			c-0.7,0.1-1.2,0.3-1.5,0.5c-0.5,0.3-0.8,0.8-0.8,1.4c0,0.6,0.2,1,0.5,1.2c0.3,0.3,0.7,0.4,1.2,0.4c0.7,0,1.4-0.2,2-0.6
			s0.9-1.2,1-2.3V121.1z"/>
		<path class="st2" d="M258.9,117v-2.4h1.8v-3.6h3.3v3.6h2.1v2.4H264v6.8c0,0.5,0.1,0.8,0.2,1s0.5,0.2,1.2,0.2c0.1,0,0.2,0,0.3,0
			s0.2,0,0.3,0v2.5l-1.6,0.1c-1.6,0.1-2.7-0.2-3.2-0.8c-0.4-0.4-0.6-1-0.6-1.8V117H258.9z"/>
		<path class="st2" d="M277.4,114.6c0.6,0.3,1.2,0.7,1.6,1.3c0.4,0.5,0.6,1,0.6,1.5c0.1,0.5,0.1,1.3,0.1,2.5v7.5h-3.4v-7.8
			c0-0.7-0.1-1.2-0.3-1.7c-0.3-0.6-0.9-0.9-1.7-0.9c-0.9,0-1.5,0.3-2,0.9c-0.5,0.6-0.7,1.4-0.7,2.5v6.9h-3.3v-17.2h3.3v6.1
			c0.5-0.7,1-1.3,1.7-1.6c0.6-0.3,1.3-0.4,2-0.4C276.1,114.2,276.8,114.3,277.4,114.6z"/>
		<path class="st2" d="M291.2,114.8c0.9,0.4,1.6,1,2.2,1.9c0.5,0.8,0.9,1.6,1,2.6c0.1,0.6,0.1,1.4,0.1,2.5h-9.3
			c0.1,1.3,0.5,2.2,1.3,2.7c0.5,0.3,1.1,0.5,1.8,0.5c0.8,0,1.4-0.2,1.9-0.6c0.3-0.2,0.5-0.5,0.7-0.9h3.4c-0.1,0.8-0.5,1.5-1.2,2.3
			c-1.1,1.2-2.7,1.9-4.8,1.9c-1.7,0-3.2-0.5-4.5-1.6c-1.3-1-1.9-2.8-1.9-5.1c0-2.2,0.6-3.9,1.8-5.1s2.7-1.8,4.6-1.8
			C289.3,114.2,290.3,114.4,291.2,114.8z M286.2,117.6c-0.5,0.5-0.8,1.1-0.9,2h5.8c-0.1-0.9-0.4-1.6-0.9-2s-1.2-0.7-2-0.7
			C287.4,116.9,286.7,117.2,286.2,117.6z"/>
		<path class="st2" d="M306.9,125.7c-1.1,1.3-2.7,2-4.9,2s-3.8-0.7-4.9-2c-1.1-1.3-1.6-2.9-1.6-4.8c0-1.8,0.5-3.4,1.6-4.8
			c1.1-1.4,2.7-2,4.9-2s3.8,0.7,4.9,2c1.1,1.4,1.6,2.9,1.6,4.8C308.5,122.8,308,124.4,306.9,125.7z M304.2,123.9
			c0.5-0.7,0.8-1.7,0.8-3s-0.3-2.3-0.8-3s-1.3-1-2.2-1s-1.7,0.3-2.3,1s-0.8,1.7-0.8,3s0.3,2.3,0.8,3s1.3,1,2.3,1
			S303.7,124.6,304.2,123.9z"/>
		<path class="st2" d="M318,114.2c0,0,0.1,0,0.3,0v3.4c-0.2,0-0.4,0-0.6,0s-0.3,0-0.4,0c-1.3,0-2.2,0.4-2.7,1.3
			c-0.3,0.5-0.4,1.2-0.4,2.3v6.1h-3.4v-12.8h3.2v2.2c0.5-0.9,1-1.4,1.3-1.7c0.6-0.5,1.4-0.8,2.4-0.8
			C317.9,114.2,318,114.2,318,114.2z"/>
		<path class="st2" d="M320.8,129.7l0.4,0c0.3,0,0.6,0,0.9,0s0.5-0.1,0.8-0.3c0.2-0.1,0.4-0.4,0.5-0.8s0.2-0.7,0.2-0.8l-4.7-13.3
			h3.7l2.8,9.4l2.6-9.4h3.6l-4.4,12.6c-0.8,2.4-1.5,3.9-2,4.5s-1.5,0.9-3,0.9c-0.3,0-0.5,0-0.7,0s-0.5,0-0.8,0V129.7z"/>
		<path class="st2" d="M345.3,119.5c0.6-0.1,1.1-0.2,1.3-0.3c0.5-0.2,0.7-0.5,0.7-0.9c0-0.5-0.2-0.9-0.6-1.1s-0.9-0.3-1.6-0.3
			c-0.8,0-1.4,0.2-1.7,0.6c-0.2,0.3-0.4,0.7-0.5,1.2h-3.2c0.1-1.1,0.4-2,0.9-2.8c0.9-1.1,2.4-1.7,4.6-1.7c1.4,0,2.7,0.3,3.7,0.8
			s1.6,1.6,1.6,3.1v5.9c0,0.4,0,0.9,0,1.5c0,0.4,0.1,0.7,0.2,0.9s0.3,0.3,0.5,0.4v0.5h-3.6c-0.1-0.3-0.2-0.5-0.2-0.7
			s-0.1-0.5-0.1-0.8c-0.5,0.5-1,0.9-1.6,1.3c-0.7,0.4-1.5,0.6-2.5,0.6c-1.2,0-2.1-0.3-2.9-1c-0.8-0.7-1.1-1.6-1.1-2.8
			c0-1.6,0.6-2.7,1.8-3.4c0.7-0.4,1.7-0.7,3-0.8L345.3,119.5z M347.4,121.1c-0.2,0.1-0.4,0.2-0.6,0.3s-0.5,0.2-0.9,0.2l-0.8,0.1
			c-0.7,0.1-1.2,0.3-1.5,0.5c-0.5,0.3-0.8,0.8-0.8,1.4c0,0.6,0.2,1,0.5,1.2c0.3,0.3,0.7,0.4,1.2,0.4c0.7,0,1.4-0.2,2-0.6
			s0.9-1.2,1-2.3V121.1z"/>
		<path class="st2" d="M363.9,115.2c0.8,0.7,1.3,1.8,1.3,3.4v8.6h-3.4v-7.8c0-0.7-0.1-1.2-0.3-1.5c-0.3-0.7-0.9-1-1.9-1
			c-1.1,0-1.9,0.5-2.3,1.4c-0.2,0.5-0.3,1.2-0.3,1.9v6.9h-3.3v-12.8h3.2v1.9c0.4-0.7,0.8-1.1,1.2-1.4c0.7-0.5,1.6-0.8,2.6-0.8
			C362,114.2,363.1,114.5,363.9,115.2z"/>
		<path class="st2" d="M375.1,114.7c0.6,0.3,1.1,0.8,1.5,1.4V110h3.4v17.2h-3.2v-1.8c-0.5,0.8-1,1.3-1.6,1.7s-1.4,0.5-2.3,0.5
			c-1.5,0-2.7-0.6-3.8-1.8s-1.5-2.8-1.5-4.6c0-2.2,0.5-3.9,1.5-5.1s2.3-1.9,4-1.9C373.8,114.2,374.4,114.4,375.1,114.7z
			 M375.9,123.8c0.5-0.7,0.7-1.6,0.7-2.7c0-1.6-0.4-2.7-1.2-3.4c-0.5-0.4-1-0.6-1.7-0.6c-1,0-1.7,0.4-2.2,1.1s-0.7,1.7-0.7,2.7
			c0,1.2,0.2,2.1,0.7,2.8s1.2,1.1,2.1,1.1S375.4,124.5,375.9,123.8z"/>
		<path class="st2" d="M81,141.8h-3.4v-3.1H81V141.8z M77.6,143.3H81v12.8h-3.4V143.3z"/>
		<path class="st2" d="M94.5,144c0.8,0.7,1.3,1.8,1.3,3.4v8.6h-3.4v-7.8c0-0.7-0.1-1.2-0.3-1.5c-0.3-0.7-0.9-1-1.9-1
			c-1.1,0-1.9,0.5-2.3,1.4c-0.2,0.5-0.3,1.2-0.3,1.9v6.9h-3.3v-12.8h3.2v1.9c0.4-0.7,0.8-1.1,1.2-1.4c0.7-0.5,1.6-0.8,2.6-0.8
			C92.6,143,93.7,143.3,94.5,144z"/>
		<path class="st2" d="M97.6,145.8v-2.4h1.8v-3.6h3.3v3.6h2.1v2.4h-2.1v6.8c0,0.5,0.1,0.8,0.2,1s0.5,0.2,1.2,0.2c0.1,0,0.2,0,0.3,0
			s0.2,0,0.3,0v2.5l-1.6,0.1c-1.6,0.1-2.7-0.2-3.2-0.8c-0.4-0.4-0.6-1-0.6-1.8v-7.9H97.6z"/>
		<path class="st2" d="M115.2,143.6c0.9,0.4,1.6,1,2.2,1.9c0.5,0.8,0.9,1.6,1,2.6c0.1,0.6,0.1,1.4,0.1,2.5h-9.3
			c0.1,1.3,0.5,2.2,1.3,2.7c0.5,0.3,1.1,0.5,1.8,0.5c0.8,0,1.4-0.2,1.9-0.6c0.3-0.2,0.5-0.5,0.7-0.9h3.4c-0.1,0.8-0.5,1.5-1.2,2.3
			c-1.1,1.2-2.7,1.9-4.8,1.9c-1.7,0-3.2-0.5-4.5-1.6c-1.3-1-1.9-2.8-1.9-5.1c0-2.2,0.6-3.9,1.8-5.1c1.2-1.2,2.7-1.8,4.6-1.8
			C113.3,143,114.3,143.2,115.2,143.6z M110.2,146.4c-0.5,0.5-0.8,1.1-0.9,2h5.8c-0.1-0.9-0.4-1.6-0.9-2c-0.5-0.5-1.2-0.7-2-0.7
			C111.3,145.7,110.7,146,110.2,146.4z"/>
		<path class="st2" d="M127.3,143c0,0,0.1,0,0.3,0v3.4c-0.2,0-0.4,0-0.6,0s-0.3,0-0.4,0c-1.3,0-2.2,0.4-2.7,1.3
			c-0.3,0.5-0.4,1.2-0.4,2.3v6.1h-3.4v-12.8h3.2v2.2c0.5-0.9,1-1.4,1.3-1.7c0.6-0.5,1.4-0.8,2.4-0.8C127.2,143,127.3,143,127.3,143z
			"/>
		<path class="st2" d="M134.6,148.3c0.6-0.1,1.1-0.2,1.3-0.3c0.5-0.2,0.7-0.5,0.7-0.9c0-0.5-0.2-0.9-0.6-1.1
			c-0.4-0.2-0.9-0.3-1.6-0.3c-0.8,0-1.4,0.2-1.7,0.6c-0.2,0.3-0.4,0.7-0.5,1.2h-3.2c0.1-1.1,0.4-2,0.9-2.8c0.9-1.1,2.4-1.7,4.6-1.7
			c1.4,0,2.7,0.3,3.7,0.8c1.1,0.6,1.6,1.6,1.6,3.1v5.9c0,0.4,0,0.9,0,1.5c0,0.4,0.1,0.7,0.2,0.9s0.3,0.3,0.5,0.4v0.5h-3.6
			c-0.1-0.3-0.2-0.5-0.2-0.7s-0.1-0.5-0.1-0.8c-0.5,0.5-1,0.9-1.6,1.3c-0.7,0.4-1.5,0.6-2.5,0.6c-1.2,0-2.1-0.3-2.9-1
			c-0.8-0.7-1.1-1.6-1.1-2.8c0-1.6,0.6-2.7,1.8-3.4c0.7-0.4,1.7-0.7,3-0.8L134.6,148.3z M136.7,149.9c-0.2,0.1-0.4,0.2-0.6,0.3
			c-0.2,0.1-0.5,0.2-0.9,0.2l-0.8,0.1c-0.7,0.1-1.2,0.3-1.5,0.5c-0.5,0.3-0.8,0.8-0.8,1.4c0,0.6,0.2,1,0.5,1.2s0.7,0.4,1.2,0.4
			c0.7,0,1.4-0.2,2-0.6s0.9-1.2,1-2.3V149.9z"/>
		<path class="st2" d="M150.6,147.9c-0.1-0.5-0.2-0.9-0.5-1.3c-0.4-0.5-1-0.8-1.8-0.8c-1.1,0-1.9,0.6-2.3,1.7
			c-0.2,0.6-0.3,1.4-0.3,2.4c0,0.9,0.1,1.7,0.3,2.3c0.4,1.1,1.2,1.6,2.3,1.6c0.8,0,1.3-0.2,1.7-0.6s0.5-1,0.6-1.6h3.4
			c-0.1,1-0.4,2-1.1,2.9c-1,1.5-2.6,2.2-4.7,2.2s-3.6-0.6-4.5-1.8s-1.5-2.8-1.5-4.7c0-2.2,0.5-3.9,1.6-5.1s2.5-1.8,4.4-1.8
			c1.6,0,2.9,0.4,3.9,1.1s1.6,2,1.8,3.8H150.6z"/>
		<path class="st2" d="M154.9,145.8v-2.4h1.8v-3.6h3.3v3.6h2.1v2.4H160v6.8c0,0.5,0.1,0.8,0.2,1s0.5,0.2,1.2,0.2c0.1,0,0.2,0,0.3,0
			s0.2,0,0.3,0v2.5l-1.6,0.1c-1.6,0.1-2.7-0.2-3.2-0.8c-0.4-0.4-0.6-1-0.6-1.8v-7.9H154.9z"/>
		<path class="st2" d="M167.7,141.8h-3.4v-3.1h3.4V141.8z M164.3,143.3h3.4v12.8h-3.4V143.3z"/>
		<path class="st2" d="M178.8,143.3h3.6l-4.6,12.8h-3.5l-4.6-12.8h3.8l2.7,9.4L178.8,143.3z"/>
		<path class="st2" d="M192.6,143.6c0.9,0.4,1.6,1,2.2,1.9c0.5,0.8,0.9,1.6,1,2.6c0.1,0.6,0.1,1.4,0.1,2.5h-9.3
			c0.1,1.3,0.5,2.2,1.3,2.7c0.5,0.3,1.1,0.5,1.8,0.5c0.8,0,1.4-0.2,1.9-0.6c0.3-0.2,0.5-0.5,0.7-0.9h3.4c-0.1,0.8-0.5,1.5-1.2,2.3
			c-1.1,1.2-2.7,1.9-4.8,1.9c-1.7,0-3.2-0.5-4.5-1.6c-1.3-1-1.9-2.8-1.9-5.1c0-2.2,0.6-3.9,1.8-5.1c1.2-1.2,2.7-1.8,4.6-1.8
			C190.7,143,191.7,143.2,192.6,143.6z M187.6,146.4c-0.5,0.5-0.8,1.1-0.9,2h5.8c-0.1-0.9-0.4-1.6-0.9-2c-0.5-0.5-1.2-0.7-2-0.7
			C188.7,145.7,188.1,146,187.6,146.4z"/>
		<path class="st2" d="M220.2,143.4c0.5,0.2,1,0.6,1.5,1.1c0.4,0.4,0.6,1,0.7,1.6c0.1,0.4,0.1,1.1,0.1,1.9l0,8.1h-3.4v-8.1
			c0-0.5-0.1-0.9-0.2-1.2c-0.3-0.6-0.8-0.9-1.6-0.9c-0.9,0-1.6,0.4-1.9,1.1c-0.2,0.4-0.3,0.9-0.3,1.5v7.6h-3.4v-7.6
			c0-0.8-0.1-1.3-0.2-1.7c-0.3-0.6-0.8-0.9-1.7-0.9c-1,0-1.6,0.3-1.9,0.9c-0.2,0.4-0.3,0.9-0.3,1.6v7.7h-3.4v-12.8h3.2v1.9
			c0.4-0.7,0.8-1.1,1.2-1.4c0.6-0.5,1.5-0.8,2.5-0.8c1,0,1.8,0.2,2.4,0.6c0.5,0.4,0.9,0.9,1.1,1.5c0.4-0.8,1-1.3,1.6-1.7
			c0.7-0.4,1.5-0.5,2.3-0.5C219.1,143,219.7,143.1,220.2,143.4z"/>
		<path class="st2" d="M233.9,143.6c0.9,0.4,1.6,1,2.2,1.9c0.5,0.8,0.9,1.6,1,2.6c0.1,0.6,0.1,1.4,0.1,2.5H228
			c0.1,1.3,0.5,2.2,1.3,2.7c0.5,0.3,1.1,0.5,1.8,0.5c0.8,0,1.4-0.2,1.9-0.6c0.3-0.2,0.5-0.5,0.7-0.9h3.4c-0.1,0.8-0.5,1.5-1.2,2.3
			c-1.1,1.2-2.7,1.9-4.8,1.9c-1.7,0-3.2-0.5-4.5-1.6c-1.3-1-1.9-2.8-1.9-5.1c0-2.2,0.6-3.9,1.8-5.1s2.7-1.8,4.6-1.8
			C232.1,143,233.1,143.2,233.9,143.6z M229,146.4c-0.5,0.5-0.8,1.1-0.9,2h5.8c-0.1-0.9-0.4-1.6-0.9-2s-1.2-0.7-2-0.7
			C230.1,145.7,229.4,146,229,146.4z"/>
		<path class="st2" d="M245.7,143.5c0.6,0.3,1.1,0.8,1.5,1.4v-6.1h3.4v17.2h-3.2v-1.8c-0.5,0.8-1,1.3-1.6,1.7s-1.4,0.5-2.3,0.5
			c-1.5,0-2.7-0.6-3.8-1.8s-1.5-2.8-1.5-4.6c0-2.2,0.5-3.9,1.5-5.1s2.3-1.9,4-1.9C244.5,143,245.1,143.2,245.7,143.5z M246.6,152.6
			c0.5-0.7,0.7-1.6,0.7-2.7c0-1.6-0.4-2.7-1.2-3.4c-0.5-0.4-1-0.6-1.7-0.6c-1,0-1.7,0.4-2.2,1.1s-0.7,1.7-0.7,2.7
			c0,1.2,0.2,2.1,0.7,2.8s1.2,1.1,2.1,1.1S246.1,153.3,246.6,152.6z"/>
		<path class="st2" d="M257.1,141.8h-3.4v-3.1h3.4V141.8z M253.7,143.3h3.4v12.8h-3.4V143.3z"/>
		<path class="st2" d="M265.4,148.3c0.6-0.1,1.1-0.2,1.3-0.3c0.5-0.2,0.7-0.5,0.7-0.9c0-0.5-0.2-0.9-0.6-1.1s-0.9-0.3-1.6-0.3
			c-0.8,0-1.4,0.2-1.7,0.6c-0.2,0.3-0.4,0.7-0.5,1.2h-3.2c0.1-1.1,0.4-2,0.9-2.8c0.9-1.1,2.4-1.7,4.6-1.7c1.4,0,2.7,0.3,3.7,0.8
			s1.6,1.6,1.6,3.1v5.9c0,0.4,0,0.9,0,1.5c0,0.4,0.1,0.7,0.2,0.9s0.3,0.3,0.5,0.4v0.5h-3.6c-0.1-0.3-0.2-0.5-0.2-0.7
			s-0.1-0.5-0.1-0.8c-0.5,0.5-1,0.9-1.6,1.3c-0.7,0.4-1.5,0.6-2.5,0.6c-1.2,0-2.1-0.3-2.9-1c-0.8-0.7-1.1-1.6-1.1-2.8
			c0-1.6,0.6-2.7,1.8-3.4c0.7-0.4,1.7-0.7,3-0.8L265.4,148.3z M267.4,149.9c-0.2,0.1-0.4,0.2-0.6,0.3s-0.5,0.2-0.9,0.2l-0.8,0.1
			c-0.7,0.1-1.2,0.3-1.5,0.5c-0.5,0.3-0.8,0.8-0.8,1.4c0,0.6,0.2,1,0.5,1.2c0.3,0.3,0.7,0.4,1.2,0.4c0.7,0,1.4-0.2,2-0.6
			s0.9-1.2,1-2.3V149.9z"/>
		<path class="st2" d="M287.1,143.5c0.6,0.3,1.1,0.8,1.5,1.4v-6.1h3.4v17.2h-3.2v-1.8c-0.5,0.8-1,1.3-1.6,1.7s-1.4,0.5-2.3,0.5
			c-1.5,0-2.7-0.6-3.8-1.8s-1.5-2.8-1.5-4.6c0-2.2,0.5-3.9,1.5-5.1s2.3-1.9,4-1.9C285.8,143,286.5,143.2,287.1,143.5z M287.9,152.6
			c0.5-0.7,0.7-1.6,0.7-2.7c0-1.6-0.4-2.7-1.2-3.4c-0.5-0.4-1-0.6-1.7-0.6c-1,0-1.7,0.4-2.2,1.1s-0.7,1.7-0.7,2.7
			c0,1.2,0.2,2.1,0.7,2.8s1.2,1.1,2.1,1.1S287.4,153.3,287.9,152.6z"/>
		<path class="st2" d="M303.3,143.6c0.9,0.4,1.6,1,2.2,1.9c0.5,0.8,0.9,1.6,1,2.6c0.1,0.6,0.1,1.4,0.1,2.5h-9.3
			c0.1,1.3,0.5,2.2,1.3,2.7c0.5,0.3,1.1,0.5,1.8,0.5c0.8,0,1.4-0.2,1.9-0.6c0.3-0.2,0.5-0.5,0.7-0.9h3.4c-0.1,0.8-0.5,1.5-1.2,2.3
			c-1.1,1.2-2.7,1.9-4.8,1.9c-1.7,0-3.2-0.5-4.5-1.6c-1.3-1-1.9-2.8-1.9-5.1c0-2.2,0.6-3.9,1.8-5.1s2.7-1.8,4.6-1.8
			C301.4,143,302.4,143.2,303.3,143.6z M298.3,146.4c-0.5,0.5-0.8,1.1-0.9,2h5.8c-0.1-0.9-0.4-1.6-0.9-2s-1.2-0.7-2-0.7
			C299.4,145.7,298.8,146,298.3,146.4z"/>
		<path class="st2" d="M310.9,152c0.1,0.6,0.2,1,0.5,1.3c0.4,0.4,1.2,0.7,2.3,0.7c0.7,0,1.2-0.1,1.6-0.3s0.6-0.5,0.6-0.9
			c0-0.4-0.2-0.7-0.5-0.9c-0.3-0.2-1.5-0.5-3.5-1c-1.5-0.4-2.5-0.8-3.1-1.3c-0.6-0.5-0.9-1.3-0.9-2.3c0-1.2,0.5-2.2,1.4-3
			s2.2-1.3,3.9-1.3c1.6,0,2.9,0.3,3.9,1s1.6,1.7,1.7,3.3h-3.3c0-0.4-0.2-0.8-0.4-1c-0.4-0.5-1-0.7-1.9-0.7c-0.7,0-1.2,0.1-1.6,0.3
			s-0.5,0.5-0.5,0.8c0,0.4,0.2,0.7,0.5,0.8c0.3,0.2,1.5,0.5,3.5,0.9c1.3,0.3,2.3,0.8,3,1.4c0.7,0.6,1,1.4,1,2.4
			c0,1.3-0.5,2.3-1.4,3.1s-2.4,1.2-4.4,1.2c-2,0-3.5-0.4-4.5-1.3s-1.4-1.9-1.4-3.2H310.9z"/>
		<path class="st2" d="M325.1,141.8h-3.4v-3.1h3.4V141.8z M321.7,143.3h3.4v12.8h-3.4V143.3z"/>
		<path class="st2" d="M334.7,143.3c0.8,0.3,1.5,1,2,1.9v-1.8h3.3v12.1c0,1.6-0.3,2.9-0.8,3.7c-1,1.4-2.8,2.2-5.5,2.2
			c-1.6,0-3-0.3-4-1s-1.6-1.6-1.7-2.9h3.6c0.1,0.4,0.2,0.7,0.5,0.8c0.4,0.3,1,0.5,1.8,0.5c1.2,0,2-0.4,2.4-1.2
			c0.3-0.5,0.4-1.4,0.4-2.6v-0.8c-0.3,0.5-0.7,1-1,1.2c-0.7,0.5-1.5,0.8-2.6,0.8c-1.6,0-3-0.6-3.9-1.7s-1.5-2.7-1.5-4.7
			c0-1.9,0.5-3.5,1.4-4.8s2.3-1.9,4-1.9C333.6,143,334.2,143.1,334.7,143.3z M335.8,152.5c0.5-0.6,0.8-1.5,0.8-2.8
			c0-1.2-0.3-2.1-0.8-2.8s-1.2-0.9-2-0.9c-1.2,0-2,0.6-2.4,1.7c-0.2,0.6-0.3,1.3-0.3,2.2c0,0.7,0.1,1.4,0.4,2
			c0.5,1.1,1.3,1.6,2.4,1.6C334.6,153.3,335.3,153,335.8,152.5z"/>
		<path class="st2" d="M353.3,144c0.8,0.7,1.3,1.8,1.3,3.4v8.6h-3.4v-7.8c0-0.7-0.1-1.2-0.3-1.5c-0.3-0.7-0.9-1-1.9-1
			c-1.1,0-1.9,0.5-2.3,1.4c-0.2,0.5-0.3,1.2-0.3,1.9v6.9H343v-12.8h3.2v1.9c0.4-0.7,0.8-1.1,1.2-1.4c0.7-0.5,1.6-0.8,2.6-0.8
			C351.4,143,352.5,143.3,353.3,144z"/>
		<path class="st2" d="M369.4,148.3c0.6-0.1,1.1-0.2,1.3-0.3c0.5-0.2,0.7-0.5,0.7-0.9c0-0.5-0.2-0.9-0.6-1.1s-0.9-0.3-1.6-0.3
			c-0.8,0-1.4,0.2-1.7,0.6c-0.2,0.3-0.4,0.7-0.5,1.2h-3.2c0.1-1.1,0.4-2,0.9-2.8c0.9-1.1,2.4-1.7,4.6-1.7c1.4,0,2.7,0.3,3.7,0.8
			s1.6,1.6,1.6,3.1v5.9c0,0.4,0,0.9,0,1.5c0,0.4,0.1,0.7,0.2,0.9s0.3,0.3,0.5,0.4v0.5h-3.6c-0.1-0.3-0.2-0.5-0.2-0.7
			s-0.1-0.5-0.1-0.8c-0.5,0.5-1,0.9-1.6,1.3c-0.7,0.4-1.5,0.6-2.5,0.6c-1.2,0-2.1-0.3-2.9-1c-0.8-0.7-1.1-1.6-1.1-2.8
			c0-1.6,0.6-2.7,1.8-3.4c0.7-0.4,1.7-0.7,3-0.8L369.4,148.3z M371.4,149.9c-0.2,0.1-0.4,0.2-0.6,0.3s-0.5,0.2-0.9,0.2l-0.8,0.1
			c-0.7,0.1-1.2,0.3-1.5,0.5c-0.5,0.3-0.8,0.8-0.8,1.4c0,0.6,0.2,1,0.5,1.2c0.3,0.3,0.7,0.4,1.2,0.4c0.7,0,1.4-0.2,2-0.6
			s0.9-1.2,1-2.3V149.9z"/>
		<path class="st2" d="M376.4,145.8v-2.4h1.8v-3.6h3.3v3.6h2.1v2.4h-2.1v6.8c0,0.5,0.1,0.8,0.2,1s0.5,0.2,1.2,0.2c0.1,0,0.2,0,0.3,0
			s0.2,0,0.3,0v2.5l-1.6,0.1c-1.6,0.1-2.7-0.2-3.2-0.8c-0.4-0.4-0.6-1-0.6-1.8v-7.9H376.4z"/>
		<path class="st2" d="M77.8,167.6h12.3v3h-8.7v4h7.7v3h-7.7v7.2h-3.6V167.6z"/>
		<path class="st2" d="M97.3,177.1c0.6-0.1,1.1-0.2,1.3-0.3c0.5-0.2,0.7-0.5,0.7-0.9c0-0.5-0.2-0.9-0.6-1.1
			c-0.4-0.2-0.9-0.3-1.6-0.3c-0.8,0-1.4,0.2-1.7,0.6c-0.2,0.3-0.4,0.7-0.5,1.2h-3.2c0.1-1.1,0.4-2,0.9-2.8c0.9-1.1,2.4-1.7,4.6-1.7
			c1.4,0,2.7,0.3,3.7,0.8c1.1,0.6,1.6,1.6,1.6,3.1v5.9c0,0.4,0,0.9,0,1.5c0,0.4,0.1,0.7,0.2,0.9s0.3,0.3,0.5,0.4v0.5h-3.6
			c-0.1-0.3-0.2-0.5-0.2-0.7s-0.1-0.5-0.1-0.8c-0.5,0.5-1,0.9-1.6,1.3c-0.7,0.4-1.5,0.6-2.5,0.6c-1.2,0-2.1-0.3-2.9-1
			c-0.8-0.7-1.1-1.6-1.1-2.8c0-1.6,0.6-2.7,1.8-3.4c0.7-0.4,1.7-0.7,3-0.8L97.3,177.1z M99.3,178.7c-0.2,0.1-0.4,0.2-0.6,0.3
			c-0.2,0.1-0.5,0.2-0.9,0.2l-0.8,0.1c-0.7,0.1-1.2,0.3-1.5,0.5c-0.5,0.3-0.8,0.8-0.8,1.4c0,0.6,0.2,1,0.5,1.2s0.7,0.4,1.2,0.4
			c0.7,0,1.4-0.2,2-0.6s0.9-1.2,1-2.3V178.7z"/>
		<path class="st2" d="M115.9,172.8c0.8,0.7,1.3,1.8,1.3,3.4v8.6h-3.4v-7.8c0-0.7-0.1-1.2-0.3-1.5c-0.3-0.7-0.9-1-1.9-1
			c-1.1,0-1.9,0.5-2.3,1.4c-0.2,0.5-0.3,1.2-0.3,1.9v6.9h-3.3v-12.8h3.2v1.9c0.4-0.7,0.8-1.1,1.2-1.4c0.7-0.5,1.6-0.8,2.6-0.8
			C114,171.8,115,172.1,115.9,172.8z"/>
		<path class="st2" d="M122.8,180.8c0.1,0.6,0.2,1,0.5,1.3c0.4,0.4,1.2,0.7,2.3,0.7c0.7,0,1.2-0.1,1.6-0.3c0.4-0.2,0.6-0.5,0.6-0.9
			c0-0.4-0.2-0.7-0.5-0.9s-1.5-0.5-3.5-1c-1.5-0.4-2.5-0.8-3.1-1.3c-0.6-0.5-0.9-1.3-0.9-2.3c0-1.2,0.5-2.2,1.4-3s2.2-1.3,3.9-1.3
			c1.6,0,2.9,0.3,3.9,1s1.6,1.7,1.7,3.3h-3.3c0-0.4-0.2-0.8-0.4-1c-0.4-0.5-1-0.7-1.9-0.7c-0.7,0-1.2,0.1-1.6,0.3
			c-0.3,0.2-0.5,0.5-0.5,0.8c0,0.4,0.2,0.7,0.5,0.8c0.3,0.2,1.5,0.5,3.5,0.9c1.3,0.3,2.3,0.8,3,1.4c0.7,0.6,1,1.4,1,2.4
			c0,1.3-0.5,2.3-1.4,3.1s-2.4,1.2-4.4,1.2c-2,0-3.5-0.4-4.5-1.3s-1.4-1.9-1.4-3.2H122.8z"/>
		<path class="st2" d="M142.8,172.2c0.6,0.3,1.2,0.7,1.6,1.3c0.3,0.5,0.6,1,0.6,1.5c0.1,0.5,0.1,1.3,0.1,2.5v7.5h-3.4v-7.8
			c0-0.7-0.1-1.2-0.3-1.7c-0.3-0.6-0.9-0.9-1.7-0.9c-0.9,0-1.5,0.3-2,0.9c-0.5,0.6-0.7,1.4-0.7,2.5v6.9h-3.3v-17.2h3.3v6.1
			c0.5-0.7,1-1.3,1.7-1.6s1.3-0.4,2-0.4C141.4,171.8,142.1,171.9,142.8,172.2z"/>
		<path class="st2" d="M153.3,177.1c0.6-0.1,1.1-0.2,1.3-0.3c0.5-0.2,0.7-0.5,0.7-0.9c0-0.5-0.2-0.9-0.6-1.1
			c-0.4-0.2-0.9-0.3-1.6-0.3c-0.8,0-1.4,0.2-1.7,0.6c-0.2,0.3-0.4,0.7-0.5,1.2h-3.2c0.1-1.1,0.4-2,0.9-2.8c0.9-1.1,2.4-1.7,4.6-1.7
			c1.4,0,2.7,0.3,3.7,0.8c1.1,0.6,1.6,1.6,1.6,3.1v5.9c0,0.4,0,0.9,0,1.5c0,0.4,0.1,0.7,0.2,0.9s0.3,0.3,0.5,0.4v0.5h-3.6
			c-0.1-0.3-0.2-0.5-0.2-0.7s-0.1-0.5-0.1-0.8c-0.5,0.5-1,0.9-1.6,1.3c-0.7,0.4-1.5,0.6-2.5,0.6c-1.2,0-2.1-0.3-2.9-1
			c-0.8-0.7-1.1-1.6-1.1-2.8c0-1.6,0.6-2.7,1.8-3.4c0.7-0.4,1.7-0.7,3-0.8L153.3,177.1z M155.3,178.7c-0.2,0.1-0.4,0.2-0.6,0.3
			c-0.2,0.1-0.5,0.2-0.9,0.2l-0.8,0.1c-0.7,0.1-1.2,0.3-1.5,0.5c-0.5,0.3-0.8,0.8-0.8,1.4c0,0.6,0.2,1,0.5,1.2s0.7,0.4,1.2,0.4
			c0.7,0,1.4-0.2,2-0.6s0.9-1.2,1-2.3V178.7z"/>
		<path class="st2" d="M167.6,172.1h3.4l1.9,9.2l2-9.2h3.5l-3.7,12.8h-3.4l-2-9.3l-2,9.3h-3.5l-3.6-12.8h3.6l2,9.2L167.6,172.1z"/>
		<path class="st2" d="M188.6,172.4c0.9,0.4,1.6,1,2.2,1.9c0.5,0.8,0.9,1.6,1,2.6c0.1,0.6,0.1,1.4,0.1,2.5h-9.3
			c0.1,1.3,0.5,2.2,1.3,2.7c0.5,0.3,1.1,0.5,1.8,0.5c0.8,0,1.4-0.2,1.9-0.6c0.3-0.2,0.5-0.5,0.7-0.9h3.4c-0.1,0.8-0.5,1.5-1.2,2.3
			c-1.1,1.2-2.7,1.9-4.8,1.9c-1.7,0-3.2-0.5-4.5-1.6c-1.3-1-1.9-2.8-1.9-5.1c0-2.2,0.6-3.9,1.8-5.1c1.2-1.2,2.7-1.8,4.6-1.8
			C186.7,171.8,187.7,172,188.6,172.4z M183.6,175.2c-0.5,0.5-0.8,1.1-0.9,2h5.8c-0.1-0.9-0.4-1.6-0.9-2c-0.5-0.5-1.2-0.7-2-0.7
			C184.7,174.5,184,174.8,183.6,175.2z"/>
		<path class="st2" d="M202.2,169.4c1.4-1.4,3.2-2.1,5.3-2.1c2.9,0,5,1,6.3,2.9c0.7,1.1,1.1,2.1,1.2,3.2h-3.6
			c-0.2-0.8-0.5-1.5-0.9-1.9c-0.6-0.8-1.6-1.1-2.9-1.1c-1.3,0-2.3,0.5-3,1.6c-0.7,1.1-1.1,2.6-1.1,4.5s0.4,3.4,1.2,4.4
			c0.8,1,1.8,1.4,3,1.4c1.2,0,2.2-0.4,2.8-1.2c0.4-0.4,0.7-1.1,0.9-2h3.6c-0.3,1.9-1.1,3.4-2.4,4.6s-2.9,1.8-4.9,1.8
			c-2.5,0-4.4-0.8-5.8-2.4c-1.4-1.6-2.1-3.8-2.1-6.6C199.8,173.4,200.6,171,202.2,169.4z"/>
		<path class="st2" d="M228.2,183.3c-1.1,1.3-2.7,2-4.9,2s-3.8-0.7-4.9-2c-1.1-1.3-1.6-2.9-1.6-4.8c0-1.8,0.5-3.4,1.6-4.8
			c1.1-1.4,2.7-2,4.9-2s3.8,0.7,4.9,2c1.1,1.4,1.6,2.9,1.6,4.8C229.9,180.4,229.3,182,228.2,183.3z M225.6,181.5
			c0.5-0.7,0.8-1.7,0.8-3s-0.3-2.3-0.8-3s-1.3-1-2.2-1s-1.7,0.3-2.3,1s-0.8,1.7-0.8,3s0.3,2.3,0.8,3s1.3,1,2.3,1
			S225.1,182.2,225.6,181.5z"/>
		<path class="st2" d="M235.7,184.9h-3.3v-17.3h3.3V184.9z"/>
		<path class="st2" d="M242.3,184.9H239v-17.3h3.3V184.9z"/>
		<path class="st2" d="M253.9,172.4c0.9,0.4,1.6,1,2.2,1.9c0.5,0.8,0.9,1.6,1,2.6c0.1,0.6,0.1,1.4,0.1,2.5h-9.3
			c0.1,1.3,0.5,2.2,1.3,2.7c0.5,0.3,1.1,0.5,1.8,0.5c0.8,0,1.4-0.2,1.9-0.6c0.3-0.2,0.5-0.5,0.7-0.9h3.4c-0.1,0.8-0.5,1.5-1.2,2.3
			c-1.1,1.2-2.7,1.9-4.8,1.9c-1.7,0-3.2-0.5-4.5-1.6c-1.3-1-1.9-2.8-1.9-5.1c0-2.2,0.6-3.9,1.8-5.1s2.7-1.8,4.6-1.8
			C252,171.8,253,172,253.9,172.4z M248.9,175.2c-0.5,0.5-0.8,1.1-0.9,2h5.8c-0.1-0.9-0.4-1.6-0.9-2s-1.2-0.7-2-0.7
			C250.1,174.5,249.4,174.8,248.9,175.2z"/>
		<path class="st2" d="M265.3,172.1c0.8,0.3,1.5,1,2,1.9v-1.8h3.3v12.1c0,1.6-0.3,2.9-0.8,3.7c-1,1.4-2.8,2.2-5.5,2.2
			c-1.6,0-3-0.3-4-1s-1.6-1.6-1.7-2.9h3.6c0.1,0.4,0.2,0.7,0.5,0.8c0.4,0.3,1,0.5,1.8,0.5c1.2,0,2-0.4,2.4-1.2
			c0.3-0.5,0.4-1.4,0.4-2.6v-0.8c-0.3,0.5-0.7,1-1,1.2c-0.7,0.5-1.5,0.8-2.6,0.8c-1.6,0-3-0.6-3.9-1.7s-1.5-2.7-1.5-4.7
			c0-1.9,0.5-3.5,1.4-4.8s2.3-1.9,4-1.9C264.2,171.8,264.8,171.9,265.3,172.1z M266.4,181.3c0.5-0.6,0.8-1.5,0.8-2.8
			c0-1.2-0.3-2.1-0.8-2.8s-1.2-0.9-2-0.9c-1.2,0-2,0.6-2.4,1.7c-0.2,0.6-0.3,1.3-0.3,2.2c0,0.7,0.1,1.4,0.4,2
			c0.5,1.1,1.3,1.6,2.4,1.6C265.2,182.1,265.9,181.8,266.4,181.3z"/>
		<path class="st2" d="M281.9,172.4c0.9,0.4,1.6,1,2.2,1.9c0.5,0.8,0.9,1.6,1,2.6c0.1,0.6,0.1,1.4,0.1,2.5H276
			c0.1,1.3,0.5,2.2,1.3,2.7c0.5,0.3,1.1,0.5,1.8,0.5c0.8,0,1.4-0.2,1.9-0.6c0.3-0.2,0.5-0.5,0.7-0.9h3.4c-0.1,0.8-0.5,1.5-1.2,2.3
			c-1.1,1.2-2.7,1.9-4.8,1.9c-1.7,0-3.2-0.5-4.5-1.6c-1.3-1-1.9-2.8-1.9-5.1c0-2.2,0.6-3.9,1.8-5.1s2.7-1.8,4.6-1.8
			C280,171.8,281,172,281.9,172.4z M276.9,175.2c-0.5,0.5-0.8,1.1-0.9,2h5.8c-0.1-0.9-0.4-1.6-0.9-2s-1.2-0.7-2-0.7
			C278.1,174.5,277.4,174.8,276.9,175.2z"/>
		<path class="st2" d="M298.7,177.1c0.6-0.1,1.1-0.2,1.3-0.3c0.5-0.2,0.7-0.5,0.7-0.9c0-0.5-0.2-0.9-0.6-1.1s-0.9-0.3-1.6-0.3
			c-0.8,0-1.4,0.2-1.7,0.6c-0.2,0.3-0.4,0.7-0.5,1.2h-3.2c0.1-1.1,0.4-2,0.9-2.8c0.9-1.1,2.4-1.7,4.6-1.7c1.4,0,2.7,0.3,3.7,0.8
			s1.6,1.6,1.6,3.1v5.9c0,0.4,0,0.9,0,1.5c0,0.4,0.1,0.7,0.2,0.9s0.3,0.3,0.5,0.4v0.5h-3.6c-0.1-0.3-0.2-0.5-0.2-0.7
			s-0.1-0.5-0.1-0.8c-0.5,0.5-1,0.9-1.6,1.3c-0.7,0.4-1.5,0.6-2.5,0.6c-1.2,0-2.1-0.3-2.9-1c-0.8-0.7-1.1-1.6-1.1-2.8
			c0-1.6,0.6-2.7,1.8-3.4c0.7-0.4,1.7-0.7,3-0.8L298.7,177.1z M300.7,178.7c-0.2,0.1-0.4,0.2-0.6,0.3s-0.5,0.2-0.9,0.2l-0.8,0.1
			c-0.7,0.1-1.2,0.3-1.5,0.5c-0.5,0.3-0.8,0.8-0.8,1.4c0,0.6,0.2,1,0.5,1.2c0.3,0.3,0.7,0.4,1.2,0.4c0.7,0,1.4-0.2,2-0.6
			s0.9-1.2,1-2.3V178.7z"/>
		<path class="st2" d="M317.3,172.8c0.8,0.7,1.3,1.8,1.3,3.4v8.6h-3.4v-7.8c0-0.7-0.1-1.2-0.3-1.5c-0.3-0.7-0.9-1-1.9-1
			c-1.1,0-1.9,0.5-2.3,1.4c-0.2,0.5-0.3,1.2-0.3,1.9v6.9H307v-12.8h3.2v1.9c0.4-0.7,0.8-1.1,1.2-1.4c0.7-0.5,1.6-0.8,2.6-0.8
			C315.4,171.8,316.4,172.1,317.3,172.8z"/>
		<path class="st2" d="M328.4,172.3c0.6,0.3,1.1,0.8,1.5,1.4v-6.1h3.4v17.2H330v-1.8c-0.5,0.8-1,1.3-1.6,1.7s-1.4,0.5-2.3,0.5
			c-1.5,0-2.7-0.6-3.8-1.8s-1.5-2.8-1.5-4.6c0-2.2,0.5-3.9,1.5-5.1s2.3-1.9,4-1.9C327.1,171.8,327.8,172,328.4,172.3z M329.2,181.4
			c0.5-0.7,0.7-1.6,0.7-2.7c0-1.6-0.4-2.7-1.2-3.4c-0.5-0.4-1-0.6-1.7-0.6c-1,0-1.7,0.4-2.2,1.1s-0.7,1.7-0.7,2.7
			c0,1.2,0.2,2.1,0.7,2.8s1.2,1.1,2.1,1.1S328.7,182.1,329.2,181.4z"/>
		<path class="st2" d="M80.2,196.4l2.3,9.9l0.5,2.8l0.5-2.7l2-9.9h3.8l2.1,9.9l0.5,2.8l0.5-2.6l2.3-10h3.7l-4.9,17.3H90l-2.1-10.1
			l-0.6-3.3l-0.6,3.3l-2.1,10.1h-3.4l-4.9-17.3H80.2z"/>
		<path class="st2" d="M108.1,201.2c0.9,0.4,1.6,1,2.2,1.9c0.5,0.8,0.9,1.6,1,2.6c0.1,0.6,0.1,1.4,0.1,2.5h-9.3
			c0.1,1.3,0.5,2.2,1.3,2.7c0.5,0.3,1.1,0.5,1.8,0.5c0.8,0,1.4-0.2,1.9-0.6c0.3-0.2,0.5-0.5,0.7-0.9h3.4c-0.1,0.8-0.5,1.5-1.2,2.3
			c-1.1,1.2-2.7,1.9-4.8,1.9c-1.7,0-3.2-0.5-4.5-1.6c-1.3-1-1.9-2.8-1.9-5.1c0-2.2,0.6-3.9,1.8-5.1c1.2-1.2,2.7-1.8,4.6-1.8
			C106.2,200.6,107.2,200.8,108.1,201.2z M103.1,204c-0.5,0.5-0.8,1.1-0.9,2h5.8c-0.1-0.9-0.4-1.6-0.9-2c-0.5-0.5-1.2-0.7-2-0.7
			C104.3,203.3,103.6,203.6,103.1,204z"/>
		<path class="st2" d="M115.7,209.6c0.1,0.6,0.2,1,0.5,1.3c0.4,0.4,1.2,0.7,2.3,0.7c0.7,0,1.2-0.1,1.6-0.3c0.4-0.2,0.6-0.5,0.6-0.9
			c0-0.4-0.2-0.7-0.5-0.9s-1.5-0.5-3.5-1c-1.5-0.4-2.5-0.8-3.1-1.3c-0.6-0.5-0.9-1.3-0.9-2.3c0-1.2,0.5-2.2,1.4-3s2.2-1.3,3.9-1.3
			c1.6,0,2.9,0.3,3.9,1s1.6,1.7,1.7,3.3h-3.3c0-0.4-0.2-0.8-0.4-1c-0.4-0.5-1-0.7-1.9-0.7c-0.7,0-1.2,0.1-1.6,0.3
			c-0.3,0.2-0.5,0.5-0.5,0.8c0,0.4,0.2,0.7,0.5,0.8c0.3,0.2,1.5,0.5,3.5,0.9c1.3,0.3,2.3,0.8,3,1.4c0.7,0.6,1,1.4,1,2.4
			c0,1.3-0.5,2.3-1.4,3.1s-2.4,1.2-4.4,1.2c-2,0-3.5-0.4-4.5-1.3s-1.4-1.9-1.4-3.2H115.7z"/>
		<path class="st2" d="M125.2,203.4V201h1.8v-3.6h3.3v3.6h2.1v2.4h-2.1v6.8c0,0.5,0.1,0.8,0.2,1s0.5,0.2,1.2,0.2c0.1,0,0.2,0,0.3,0
			s0.2,0,0.3,0v2.5l-1.6,0.1c-1.6,0.1-2.7-0.2-3.2-0.8c-0.4-0.4-0.6-1-0.6-1.8v-7.9H125.2z"/>
		<path class="st2" d="M142.8,201.2c0.9,0.4,1.6,1,2.2,1.9c0.5,0.8,0.9,1.6,1,2.6c0.1,0.6,0.1,1.4,0.1,2.5h-9.3
			c0.1,1.3,0.5,2.2,1.3,2.7c0.5,0.3,1.1,0.5,1.8,0.5c0.8,0,1.4-0.2,1.9-0.6c0.3-0.2,0.5-0.5,0.7-0.9h3.4c-0.1,0.8-0.5,1.5-1.2,2.3
			c-1.1,1.2-2.7,1.9-4.8,1.9c-1.7,0-3.2-0.5-4.5-1.6c-1.3-1-1.9-2.8-1.9-5.1c0-2.2,0.6-3.9,1.8-5.1c1.2-1.2,2.7-1.8,4.6-1.8
			C140.9,200.6,141.9,200.8,142.8,201.2z M137.8,204c-0.5,0.5-0.8,1.1-0.9,2h5.8c-0.1-0.9-0.4-1.6-0.9-2c-0.5-0.5-1.2-0.7-2-0.7
			C138.9,203.3,138.3,203.6,137.8,204z"/>
		<path class="st2" d="M154.9,200.6c0,0,0.1,0,0.3,0v3.4c-0.2,0-0.4,0-0.6,0s-0.3,0-0.4,0c-1.3,0-2.2,0.4-2.7,1.3
			c-0.3,0.5-0.4,1.2-0.4,2.3v6.1h-3.4v-12.8h3.2v2.2c0.5-0.9,1-1.4,1.3-1.7c0.6-0.5,1.4-0.8,2.4-0.8
			C154.8,200.6,154.9,200.6,154.9,200.6z"/>
		<path class="st2" d="M167.5,201.6c0.8,0.7,1.3,1.8,1.3,3.4v8.6h-3.4v-7.8c0-0.7-0.1-1.2-0.3-1.5c-0.3-0.7-0.9-1-1.9-1
			c-1.1,0-1.9,0.5-2.3,1.4c-0.2,0.5-0.3,1.2-0.3,1.9v6.9h-3.3v-12.8h3.2v1.9c0.4-0.7,0.8-1.1,1.2-1.4c0.7-0.5,1.6-0.8,2.6-0.8
			C165.6,200.6,166.6,200.9,167.5,201.6z"/>
		<path class="st2" d="M178.8,196.4h3.7V207c0,1.2,0.1,2.1,0.4,2.6c0.4,1,1.4,1.5,2.8,1.5c1.5,0,2.4-0.5,2.8-1.5
			c0.3-0.5,0.4-1.4,0.4-2.6v-10.6h3.7V207c0,1.8-0.3,3.3-0.9,4.3c-1.1,1.9-3.1,2.8-6.1,2.8s-5-0.9-6.1-2.8c-0.6-1-0.9-2.5-0.9-4.3
			V196.4z"/>
		<path class="st2" d="M206.1,201.6c0.8,0.7,1.3,1.8,1.3,3.4v8.6H204v-7.8c0-0.7-0.1-1.2-0.3-1.5c-0.3-0.7-0.9-1-1.9-1
			c-1.1,0-1.9,0.5-2.3,1.4c-0.2,0.5-0.3,1.2-0.3,1.9v6.9h-3.3v-12.8h3.2v1.9c0.4-0.7,0.8-1.1,1.2-1.4c0.7-0.5,1.6-0.8,2.6-0.8
			C204.2,200.6,205.3,200.9,206.1,201.6z"/>
		<path class="st2" d="M213.9,199.4h-3.4v-3.1h3.4V199.4z M210.5,200.9h3.4v12.8h-3.4V200.9z"/>
		<path class="st2" d="M225,200.9h3.6l-4.6,12.8h-3.5l-4.6-12.8h3.8l2.7,9.4L225,200.9z"/>
		<path class="st2" d="M238.8,201.2c0.9,0.4,1.6,1,2.2,1.9c0.5,0.8,0.9,1.6,1,2.6c0.1,0.6,0.1,1.4,0.1,2.5h-9.3
			c0.1,1.3,0.5,2.2,1.3,2.7c0.5,0.3,1.1,0.5,1.8,0.5c0.8,0,1.4-0.2,1.9-0.6c0.3-0.2,0.5-0.5,0.7-0.9h3.4c-0.1,0.8-0.5,1.5-1.2,2.3
			c-1.1,1.2-2.7,1.9-4.8,1.9c-1.7,0-3.2-0.5-4.5-1.6c-1.3-1-1.9-2.8-1.9-5.1c0-2.2,0.6-3.9,1.8-5.1s2.7-1.8,4.6-1.8
			C236.9,200.6,237.9,200.8,238.8,201.2z M233.8,204c-0.5,0.5-0.8,1.1-0.9,2h5.8c-0.1-0.9-0.4-1.6-0.9-2s-1.2-0.7-2-0.7
			C235,203.3,234.3,203.6,233.8,204z"/>
		<path class="st2" d="M250.9,200.6c0,0,0.1,0,0.3,0v3.4c-0.2,0-0.4,0-0.6,0s-0.3,0-0.4,0c-1.3,0-2.2,0.4-2.7,1.3
			c-0.3,0.5-0.4,1.2-0.4,2.3v6.1h-3.4v-12.8h3.2v2.2c0.5-0.9,1-1.4,1.3-1.7c0.6-0.5,1.4-0.8,2.4-0.8
			C250.8,200.6,250.9,200.6,250.9,200.6z"/>
		<path class="st2" d="M255.8,209.6c0.1,0.6,0.2,1,0.5,1.3c0.4,0.4,1.2,0.7,2.3,0.7c0.7,0,1.2-0.1,1.6-0.3s0.6-0.5,0.6-0.9
			c0-0.4-0.2-0.7-0.5-0.9c-0.3-0.2-1.5-0.5-3.5-1c-1.5-0.4-2.5-0.8-3.1-1.3c-0.6-0.5-0.9-1.3-0.9-2.3c0-1.2,0.5-2.2,1.4-3
			s2.2-1.3,3.9-1.3c1.6,0,2.9,0.3,3.9,1s1.6,1.7,1.7,3.3h-3.3c0-0.4-0.2-0.8-0.4-1c-0.4-0.5-1-0.7-1.9-0.7c-0.7,0-1.2,0.1-1.6,0.3
			s-0.5,0.5-0.5,0.8c0,0.4,0.2,0.7,0.5,0.8c0.3,0.2,1.5,0.5,3.5,0.9c1.3,0.3,2.3,0.8,3,1.4c0.7,0.6,1,1.4,1,2.4
			c0,1.3-0.5,2.3-1.4,3.1s-2.4,1.2-4.4,1.2c-2,0-3.5-0.4-4.5-1.3s-1.4-1.9-1.4-3.2H255.8z"/>
		<path class="st2" d="M270,199.4h-3.4v-3.1h3.4V199.4z M266.6,200.9h3.4v12.8h-3.4V200.9z"/>
		<path class="st2" d="M271.9,203.4V201h1.8v-3.6h3.3v3.6h2.1v2.4H277v6.8c0,0.5,0.1,0.8,0.2,1s0.5,0.2,1.2,0.2c0.1,0,0.2,0,0.3,0
			s0.2,0,0.3,0v2.5l-1.6,0.1c-1.6,0.1-2.7-0.2-3.2-0.8c-0.4-0.4-0.6-1-0.6-1.8v-7.9H271.9z"/>
		<path class="st2" d="M281.7,216.1l0.4,0c0.3,0,0.6,0,0.9,0s0.5-0.1,0.8-0.3c0.2-0.1,0.4-0.4,0.5-0.8s0.2-0.7,0.2-0.8l-4.7-13.3
			h3.7l2.8,9.4l2.6-9.4h3.6l-4.4,12.6c-0.8,2.4-1.5,3.9-2,4.5s-1.5,0.9-3,0.9c-0.3,0-0.5,0-0.7,0s-0.5,0-0.8,0V216.1z"/>
		<path class="st2" d="M292.7,210.2h3.6v3.5h-3.6V210.2z"/>
	</g>
</g>
<g id="Layer_3" class="st3">
	<path class="st4" d="M369.9,481.5c0,4-3.3,7.3-7.3,7.3h-274c-4,0-7.3-3.3-7.3-7.3V297.3c0-4,3.3-7.3,7.3-7.3h274
		c4,0,7.3,3.3,7.3,7.3L369.9,481.5L369.9,481.5z"/>
	<path class="st5" d="M258.3,488.8h-32.7h-32.7c0,0-1.3,21.9-4,26.5h36.7h36.7C259.6,510.7,258.3,488.8,258.3,488.8z"/>
	<path class="st6" d="M268.4,517.2c-4-0.5-6.1-1.8-6.1-1.8h-36.7h-36.7c0,0-2.2,1.3-6.1,1.8c-4,0.5-6.6,0.8-6.6,2.8h49.5h49.5
		C275.1,518,272.4,517.7,268.4,517.2z"/>
	<path class="st7" d="M362.6,290h-274c-4,0-7.3,3.3-7.3,7.3v165.5h288.6V297.3C369.9,293.3,366.6,290,362.6,290z M358,452.4H213.1
		H93.2v-152h212.9H358V452.4z"/>
	<polygon class="st8" points="93.2,300.4 93.2,452.4 213.1,452.4 358,452.4 358,300.4 306.1,300.4 	"/>
	<path class="st6" d="M258.3,488.8h-32.7h-32.7c0,0-0.2,3.3-0.6,7.5h66.7C258.5,492.1,258.3,488.8,258.3,488.8z"/>
	<circle class="st7" cx="225.6" cy="476.4" r="4.7"/>
	<path class="st9" d="M362.6,290h-50.2L206.8,462.8h163.1V297.3C369.9,293.3,366.6,290,362.6,290z"/>
	<rect x="76" y="52.4" class="st10" width="312" height="299.6"/>
	<text transform="matrix(1 0 0 1 76 69.6792)" class="st11"><tspan x="0" y="0" class="st2 st12 st13">In the meantime, I’m a free</tspan><tspan x="301.4" y="0" class="st2 st12 st13">-</tspan><tspan x="0" y="28.8" class="st2 st12 st13">lance graphic designer, </tspan><tspan x="0" y="57.6" class="st2 st12 st13">web developer, photogra</tspan><tspan x="284" y="57.6" class="st2 st12 st13">-</tspan><tspan x="0" y="86.4" class="st2 st12 st13">pher, 3D animator, video </tspan><tspan x="0" y="115.2" class="st2 st12 st13">editor, and amateur </tspan><tspan x="0" y="144" class="st2 st12 st13">screenwriter.</tspan></text>
</g>
<g id="Layer_4" class="st3">
	<g class="st11">
		<g>
			<g>
				<path class="st14" d="M193.2,379L193.2,379C193.2,379,193.2,379,193.2,379L193.2,379z"/>
			</g>
			<g>
				<polygon class="st14" points="195.2,511.4 187.4,545.8 259.3,545.8 251.5,511.4 				"/>
			</g>
			<g>
				<path class="st14" d="M120.1,488.6c-0.1,0.4,13.5,19.3,27,37.9L193.2,379C173.8,408,120.3,487.9,120.1,488.6z"/>
			</g>
			<g>
				<polygon class="st14" points="223.3,387.6 201,486 245.7,486 				"/>
			</g>
			<g>
				<path class="st14" d="M253.8,379C253.8,379,253.8,379,253.8,379L253.8,379L253.8,379z"/>
			</g>
			<g>
				<g>
					<path class="st14" d="M223.5,294L93,488.9l59.5,81.9h142.3l59.2-82.1L223.5,294z M291.2,559.3H226h-5.1h-65.1l-50.6-70.7
						l118.3-177.8l118.3,177.8L291.2,559.3z"/>
				</g>
			</g>
			<g>
				<path class="st14" d="M253.8,379l46.1,147.5c13.5-18.5,27.1-37.5,27-37.9C326.7,487.9,273.2,408,253.8,379z"/>
			</g>
		</g>
	</g>
	<polygon class="st15" points="110,485.9 224,311.7 336.6,491.8 287.2,560.5 157.8,556.9 	"/>
	<g class="st11">
		<g>
			<g>
				<path class="st16" d="M195.4,387.4L195.4,387.4C195.4,387.4,195.4,387.4,195.4,387.4L195.4,387.4z"/>
			</g>
			<g>
				<polygon class="st16" points="197.2,510.3 190,542.1 256.7,542.1 249.4,510.3 				"/>
			</g>
			<g>
				<path class="st16" d="M127.6,489.1c-0.1,0.4,12.6,17.9,25,35.1l42.8-136.8C177.4,414.3,127.7,488.5,127.6,489.1z"/>
			</g>
			<g>
				<polygon class="st16" points="223.3,395.4 202.6,486.6 244.1,486.6 				"/>
			</g>
			<g>
				<path class="st16" d="M251.6,387.4C251.6,387.4,251.6,387.4,251.6,387.4L251.6,387.4L251.6,387.4z"/>
			</g>
			<g>
				<g>
					<path class="st16" d="M223.5,308.6l-121,180.8l53.7,74.3h134.8l53.5-74.5L223.5,308.6z M286.3,554.7h-60.4h-4.7h-60.4
						l-46.9-65.6l109.7-164.9l109.7,164.9L286.3,554.7z"/>
				</g>
			</g>
			<g>
				<path class="st16" d="M251.6,387.4l42.8,136.8c12.5-17.2,25.1-34.8,25-35.1C319.3,488.5,269.6,414.3,251.6,387.4z"/>
			</g>
		</g>
	</g>
	<rect x="54" y="52.4" class="st10" width="349" height="299.6"/>
	<text transform="matrix(1 0 0 1 54 69.6792)" class="st11"><tspan x="0" y="0" class="st2 st12 st13">I’m passionate about branding </tspan><tspan x="0" y="28.8" class="st2 st12 st13">and my approach to design is </tspan><tspan x="0" y="57.6" class="st2 st12 st13">heavily narrative-driven; I like </tspan><tspan x="0" y="86.4" class="st2 st12 st13">to think of a brand as a story </tspan><tspan x="0" y="115.2" class="st2 st12 st13">and I’d love to work with you </tspan><tspan x="0" y="144" class="st2 st12 st13">to find the most effective way </tspan><tspan x="0" y="172.8" class="st2 st12 st13">to share yours with your audi</tspan><tspan x="334.7" y="172.8" class="st2 st12 st13">-</tspan><tspan x="0" y="201.6" class="st2 st12 st13">ence.</tspan></text>
</g>
</svg>
