<?xml version="1.0" encoding="utf-8"?>
<!-- Generator: Adobe Illustrator 21.0.0, SVG Export Plug-In . SVG Version: 6.00 Build 0)  -->
<svg version="1.1" id="Layer_1" xmlns="http://www.w3.org/2000/svg" xmlns:xlink="http://www.w3.org/1999/xlink" x="0px" y="0px"
	 viewBox="0 0 1920 960" style="enable-background:new 0 0 1920 960;" xml:space="preserve">
<style type="text/css">
	.st0{fill:#C3E4D1;}
	.st1{fill:#444456;}
	.st2{opacity:0.45;fill:#DD7F66;enable-background:new    ;}
	.st3{opacity:0.45;fill:#D36643;enable-background:new    ;}
	.st4{opacity:0.45;fill:#7A2018;enable-background:new    ;}
	.st5{opacity:0.42;fill:#C7E7DE;enable-background:new    ;}
	.st6{fill:#2A2935;}
	.st7{fill:#39394C;}
	.st8{fill:#181821;}
	.st9{opacity:0.42;fill:#FFFFFF;enable-background:new    ;}
	.st10{opacity:0.69;fill:#7A2018;enable-background:new    ;}
	.st11{display:none;}
	.st12{display:inline;fill:#FFF7EA;}
	.st13{display:inline;opacity:0.53;enable-background:new    ;}
</style>
<g id="backdrop">
	<rect id="back_x5F_solid" x="-16.5" y="-120.1" class="st0" width="1967" height="1053.2"/>
	<g id="back_x5F_trees">
		<path class="st1" d="M773,168.7c1.3,66.1-20.2,398-36.4,516.3l64.6-4.6c-9.4-76.8,5.4-439.5,5.4-501s14.9-248.9,32.3-304.3
			l-80.8-1.5C778.3-77.2,771.6,102.6,773,168.7z"/>
		<path class="st1" d="M1849.1,252.2c-16.5-64.6-52.6-208.3-60.8-312.2l-51.9,7.5c25.3,59.4,73,242.5,88.8,307.3
			c17.1,70.7,105.2,406.4,122.9,549.1l2.4-1.5V637.2C1907.1,497.3,1861.1,299.1,1849.1,252.2z"/>
		<path class="st1" d="M184.8,202.9C172.5,266.9,98,607.7,59,723.5l56.9,12.2c6-87.4,69.2-467.7,86-527.9
			c17.1-61.5,42.7-203,80.6-287.6l-45.9-3.7C243.2-5.1,197.3,137.9,184.8,202.9z"/>
		<path class="st1" d="M640.9,203.1c-4.3,66-44.9,397.4-61.1,515.7l64.6-4.6c-9.4-76.8,16.9-449.6,21.6-511.1
			c4.8-61.3,26.9-242.5,44.5-297.8l-63.9-0.9C655.3-43.5,645.6,129.9,640.9,203.1z"/>
		<path class="st1" d="M892-71.1c14.8,46.1,14.8,184.4,14.8,216.7S896,525.2,884,625.1l40-1.4c-5.1-44.3,8.7-390.7,5.5-473.4
			c-3.2-82.9,6.7-162.9,16.1-224.4L892-71.1z"/>
		<path class="st1" d="M1134-86.5l-29.6,2.6c0.1-0.6,0.2-1.2,0.3-1.8l-47.1,4.1c14.8,46.1,23.9,196.9,23.9,229.2
			s18.2,386.7,6.1,486.6l30.6-1.1c0,0.2,0,0.4-0.1,0.6l39.7-1.5c-12-46.9-29.8-402.8-33-485.4C1121.8,63.6,1124.7-25.1,1134-86.5z
			 M1121.8,557.4c-7.9-121.8-20.3-347.1-22.6-410.4c-2.2-56.1-3.2-114.9-0.7-166.1c7.7,62,12.1,142.4,12.1,165
			C1110.6,172.4,1123.7,415.4,1121.8,557.4z"/>
		<path class="st1" d="M1016.2-79.4l-47.4-2.4c13.3,48.1,16.4,141.4,18.7,181.6s4.1,477.4,0,524.5l35.9-6.1
			c-8.2-46.1-12.3-468.2-14.3-512.2C1007,62,1012.1-31.2,1016.2-79.4z"/>
		<path class="st1" d="M1283.6-74.2l-60.4,2c11.3,24.6,32.8,141.9,35.3,169c2.6,27.1,33.3,440.5,31.2,491.2l41.5-4.1
			c-7.2-19.5-44.6-433.9-49.2-489.2S1277.9-47.6,1283.6-74.2z"/>
		<path class="st1" d="M399.1,153.9c-18.4,100.4-78.6,495.1-97,548.4l59.4,18.4c0.1-2.7,59.6-523.4,69.7-573.7
			c10.2-51.2,37.6-179.6,70.4-224.7l-90.9-11.7C418.9-11.4,417.6,53.5,399.1,153.9z"/>
		<path class="st1" d="M1531.9-147h-55.4c19.2,74,42,208.4,50.2,262c10.2,66.9,57.4,366.8,70.4,506.8l47.1-9.5
			c-25.3-84-84-436.4-92.9-503.3C1544.5,57.6,1531.8-59.4,1531.9-147z"/>
		<path class="st1" d="M1575.5-147h-41.8c19.1,77.7,41.2,208.5,50.3,262.6c12.1,71.7,64,381.6,76.5,520.4l47.8-4.1
			c-25.3-84-90.1-453.8-101.1-520.4C1598.1,56,1580-55.9,1575.5-147z"/>
	</g>
</g>
<g id="back_x5F_shading">
	<polygon id="backshade1_2_" class="st2" points="1950.5,678.5 1950.5,-83 -16.5,-76.9 -16.5,724.5 	"/>
	<polygon id="backshade2_2_" class="st3" points="1950.5,419.7 1950.5,-96.6 237.7,-142.2 	"/>
	<polygon id="backshade3_2_" class="st3" points="1398.3,-123.4 -16.5,-48.9 -16.5,448.8 	"/>
	<polygon id="backshade4_2_" class="st3" points="1658.5,698.2 -16.5,82.8 -16.5,820.6 	"/>
	<polygon id="backshade5_2_" class="st3" points="1950.5,993.9 1950.5,-25.2 164.8,735.1 	"/>
	<polygon id="backshade6_2_" class="st4" points="1950.5,-147 971.4,-147 1950.5,184.7 	"/>
	<polygon id="backshade7_2_" class="st4" points="728.9,-147 37.1,-147 -16.5,-139.2 -16.5,216.3 	"/>
	<polygon id="backshade8_2_" class="st4" points="1950.5,898.9 1950.5,376.9 900.4,636.7 	"/>
	<polygon id="backshade9_2_" class="st4" points="966,718.7 -16.5,441.1 -16.5,840.6 	"/>
</g>
<g id="back_x5F_particles">
	<ellipse id="back_x5F_part13" class="st5" cx="658.6" cy="345.5" rx="6.9" ry="9.1"/>
	<ellipse id="back_x5F_part12" class="st5" cx="414.2" cy="305.9" rx="7.2" ry="10.2"/>
	<ellipse id="back_x5F_part11" class="st5" cx="226.6" cy="251" rx="10.7" ry="11.4"/>
	<ellipse id="back_x5F_part10" class="st5" cx="235.8" cy="477.2" rx="7.5" ry="7.8"/>
	<ellipse id="back_x5F_part9" class="st5" cx="765.9" cy="461.3" rx="6.9" ry="8.9"/>
	<ellipse id="back_x5F_part8" class="st5" cx="1046.6" cy="349.6" rx="9.5" ry="11.9"/>
	<ellipse id="back_x5F_part7" class="st5" cx="70.3" cy="543.2" rx="9.5" ry="11.9"/>
	<ellipse id="back_x5F_part6" class="st5" cx="1332.3" cy="171.6" rx="6.7" ry="10.6"/>
	<ellipse id="back_x5F_part5" class="st5" cx="1330" cy="348.2" rx="9" ry="13.9"/>
	<ellipse id="back_x5F_part4" class="st5" cx="1875" cy="463" rx="9" ry="13.9"/>
	<ellipse id="back_x5F_part3" class="st5" cx="1390.4" cy="433.9" rx="7.2" ry="7.4"/>
	<ellipse id="back_x5F_part2" class="st5" cx="1675.3" cy="249" rx="9.3" ry="12.5"/>
	<ellipse id="back_x5F_part1" class="st5" cx="29.3" cy="238.8" rx="11.4" ry="12.6"/>
</g>
<g id="landscape">
	<path id="land_x5F_back_2_" class="st6" d="M1950.5,1164.3V584c-240-59.4-570.1-107-1017.2,8.8C463.3,714.4,314.1,758.9-16.5,609
		v555.4H1950.5z"/>
	<path id="land_x5F_tree4_2_" class="st7" d="M1657.1,87.2c29.3,115.7,95.3,402.6,98.3,462.5s-7.7,196.7-20,230.5l215-44.5v-18
		c-56-55.5-93.5-114.5-109.1-186.5c-16.9-78.4-77.7-391.2-89.1-453.3c-9.1-49.2-2.4-153.3,20-225H1496
		C1561.2-82.2,1626-34.8,1657.1,87.2z"/>
	<path id="land_x5F_tree3_2_" class="st1" d="M1137.7,947.8c15.4-43,37.3-132.2,35.3-224.4c-4.1-196.1-22.9-525.3-26.1-587
		c-4.6-90.7-67.6-233.6-96.8-264.3l219.7,1.5c-40,36.9-76.8,187.5-73.8,248.9c2,41.3,13.9,378.1,43,596.2
		c14.2,106.9,56.9,173.6,78.4,198.2L1137.7,947.8z"/>
	<path id="land_x5F_tree2_2_" class="st1" d="M377,861.7c44.6-67.6,96.8-205.9,113.7-293.5c12.9-67,43.6-357.8,44.6-419.5
		c1.5-98.3-23.1-210.5-63-258.2l281.2,10.8C689-58.8,649,85.7,627.5,154.8c-17.9,57.6-39.5,310.1-43,419.5
		C579.9,718.8,619.8,797.2,649,897L377,861.7z"/>
	<path id="land_x5F_tree1_2_" class="st1" d="M12.8,795.6c7.7-90.7,18.4-205.9,35.3-298.1s93.7-379.6,113.7-416.4
		S228-46.5,292.5-92.6L62-109.5C85-66.5,103.5,10.4,91.2,68.8S2.1,440.6-10.2,479.1c-1.5,4.7-3.6,11.7-6.2,20.6v289.4L12.8,795.6z"
		/>
	<path id="land_x5F_front_2_" class="st8" d="M1950.5,1164.3V648.9c-324.1-17.4-728,195.2-972.6,231.1
		c-261.2,38.4-284.3-122.9-508.6-207.5c-196-73.8-311.1-16.2-485.7,63.1v428.6H1950.5z"/>
</g>
<g id="lighting">
	<polygon id="beam_x5F_static" class="st9" points="1950.5,1039.4 1950.5,451.5 -16.5,25.3 -16.5,396.3 	"/>
	<polygon id="beam_x5F_dyna1" class="st9" points="1950.5,816.2 1950.5,609.9 -16.5,125.3 -16.5,255.5 	"/>
	<polygon id="beam_x5F_dyna2" class="st9" points="1950.5,883.5 1950.5,693.6 -16.5,178.1 -16.5,297.9 	"/>
</g>
<g id="front_x5F_trees">
	<polygon id="ftrees_x5F_backleaves_2_" class="st10" points="-16.5,-147 -16.5,180.9 1950.5,131.6 1950.5,-147 	"/>
	<path id="ftree1_2_" class="st7" d="M249.5,319.2C231,416.1,91.2,1016.9,5.1,1139.8l370.3,23.1c-13.8-98.3,33.8-670,55.3-802.2
		C452.3,228.6,629-46.5,704.3-88h-90.7C559.9-58.8,480,70.3,455.4,133.3c7.7-70.1,32.2-217.1,50.8-280.3H315.9
		c-3.7,83.1-22,204.9-26.3,238.7c-16.8-58.6-58.9-183-111.4-238.7h-41.4l-71.7,42.1C134.2-48,267.9,222.4,249.5,319.2z"/>
	<path id="ftree2_2_" class="st7" d="M1365.1,363.8c6.1,72.6,45.5,581.8,15.7,800.5h329.2c-55.7-179.1-145.6-639-168.1-817.4
		c-21.8-172.6,21.9-366.1,92.3-493.9h-131.8c-31.9,99.3-58.7,216.3-66.5,281.8c-18.2-57.1-82.4-183.3-145-281.8h-215.5
		C1216.1-35.4,1358.1,281,1365.1,363.8z"/>
	<polygon id="ftree_x5F_frontleaves1_2_" class="st10" points="1644.6,-100.6 -16.5,-100.6 -16.5,312.1 	"/>
	<polygon id="ftree_x5F_frontleaves2_2_" class="st10" points="1950.5,288.1 1950.5,-74 261.5,-60.1 	"/>
</g>
<g id="front_x5F_particles">
	<ellipse id="front_x5F_part13" class="st5" cx="596.6" cy="150.1" rx="10.8" ry="13.1"/>
	<ellipse id="front_x5F_part12" class="st5" cx="895.8" cy="72.6" rx="12.6" ry="16.9"/>
	<ellipse id="front_x5F_part11" class="st5" cx="1127" cy="76.2" rx="10" ry="14.4"/>
	<ellipse id="front_x5F_part10" class="st5" cx="1441.2" cy="88.9" rx="10.8" ry="14.6"/>
	<ellipse id="front_x5F_part9" class="st5" cx="1869" cy="30.9" rx="12.5" ry="17"/>
	<ellipse id="front_x5F_part8" class="st5" cx="365.4" cy="-4.3" rx="9.9" ry="13.8"/>
	<ellipse id="front_x5F_part7" class="st5" cx="58.1" cy="67" rx="7.5" ry="10.6"/>
	<ellipse id="front_x5F_part6" class="st5" cx="568.1" cy="775.9" rx="15" ry="19.2"/>
	<ellipse id="front_x5F_part5" class="st5" cx="1179.2" cy="625.8" rx="16.9" ry="20.7"/>
	<ellipse id="front_x5F_part4" class="st5" cx="1720.5" cy="645.7" rx="15.9" ry="23.8"/>
	<ellipse id="front_x5F_part3" class="st5" cx="92.3" cy="742.7" rx="12.1" ry="17.7"/>
	<ellipse id="front_x5F_part2" class="st5" cx="258.2" cy="414.1" rx="15.1" ry="19.9"/>
	<ellipse id="front_x5F_part1" class="st5" cx="1515.7" cy="342.3" rx="12.3" ry="18.4"/>
</g>
<g id="stencil" class="st11">
	<path class="st12" d="M3158.2,2349v-3757.5h-4414.1V2349H3158.2z M-13.5-160h1920v1280h-1920V-160z"/>
</g>
<g id="Layer_10" class="st11">
	<rect x="-12.5" y="-163" class="st13" width="1916" height="955.5"/>
</g>
</svg>
